<?xml version="1.0" encoding="UTF-8" standalone="no"?>
<svg width="24px" height="24px" viewBox="0 0 24 24" version="1.1" xmlns="http://www.w3.org/2000/svg" xmlns:xlink="http://www.w3.org/1999/xlink">
  <g id="facebook" stroke="none" stroke-width="1" fill="#FF3800" fill-rule="evenodd">
    <path d="M22.6754774,24.0001863 C23.4068843,24.0001863 24,23.4070705 24,22.6754774 L24,1.32461576 C24,0.592929454 23.4069774,0 22.6754774,0 L1.32461576,0 C0.592929454,0 0,0.592929454 0,1.32461576 L0,22.6754774 C0,23.4069774 0.592836328,24.0001863 1.32461576,24.0001863 L22.6754774,24.0001863 Z M16.5596526,24.0001863 L16.5596526,14.7059915 L19.6792606,14.7059915 L20.1463776,11.0838788 L16.5596526,11.0838788 L16.5596526,8.77138877 C16.5596526,7.72270359 16.8508558,7.00805923 18.3546448,7.00805923 L20.2726557,7.0072211 L20.2726557,3.76757451 C19.940943,3.72343307 18.8023918,3.62481326 17.477776,3.62481326 C14.7124171,3.62481326 12.8191776,5.31280436 12.8191776,8.41266971 L12.8191776,11.0838788 L9.6915609,11.0838788 L9.6915609,14.7059915 L12.8191776,14.7059915 L12.8191776,24.0001863 L16.5596526,24.0001863 Z"></path>
  </g>
</svg>
