<?xml version="1.0" encoding="UTF-8" standalone="no"?>
<svg width="30" height="30" viewBox="0 0 30 30" xmlns="http://www.w3.org/2000/svg">
  <path d="M30 7.5V4c0-2.205-1.79-4-4-4H4C1.786 0 0 1.79 0 4v21.994C0 28.214 1.79 30 4 30h22a4 4 0 0 0 4-4.006V7.5zM17.825 17.832c-.227.23-.093.736.003.832A4.015 4.015 0 0 1 19 21.5a4 4 0 1 1-6.825-2.832c.227-.23.093-.736-.003-.832A4.015 4.015 0 0 1 11 15a4 4 0 1 1 6.825 2.832zM13 15a2 2 0 1 1 3.407 1.422 1.99 1.99 0 0 1-2.821 0A2.018 2.018 0 0 1 13 15zm0 6.5a2 2 0 1 0 3.407-1.422 1.99 1.99 0 0 0-2.821 0A2.018 2.018 0 0 0 13 21.5zM2 3.998C2 2.894 2.895 2 3.997 2h22.006A2 2 0 0 1 28 3.998V8H2V3.998z" fill="#050505" fill-rule="evenodd"/>
</svg>
