<svg width="30" height="30" viewBox="0 0 30 30" xmlns="http://www.w3.org/2000/svg"><path d="M30 7.5V4c0-2.205-1.79-4-4-4H4C1.786 0 0 1.79 0 4v21.994C0 28.214 1.79 30 4 30h22a4 4 0 0 0 4-4.006V7.5zm-12.424 9.69a1.073 1.073 0 0 0 .198 1.43l.054.044A4.015 4.015 0 0 1 19 21.5c0 2.21-1.79 3.5-4 3.5s-4-1.29-4-3.5c0-1.106.45-2.108 1.175-2.832l.054-.044c.426-.345.503-.984.195-1.434 0 0-.924-1.084-.924-2.19 0-2.21 1.29-3.5 3.5-3.5s3.5 1.29 3.5 3.5c0 1.106-.924 2.19-.924 2.19zM13.5 15c0-1.105.5-1.5 1.5-1.5s1.5.395 1.5 1.5c0 .556-.255 1.5-1.5 1.5s-1.5-.944-1.5-1.5zm-.5 6.5c0 1.105 1 1.5 2 1.5s2-.395 2-1.5c0-.556-.227-1.06-.593-1.422l-.22-.168c-.656-.503-1.714-.508-2.38 0l-.221.168A2.018 2.018 0 0 0 13 21.5zM2 3.998C2 2.894 2.895 2 3.997 2h22.006A2 2 0 0 1 28 3.998V8H2V3.998z" fill="#050505" fill-rule="evenodd"/></svg>