<?xml version="1.0" encoding="UTF-8" standalone="no"?>
<svg width="30" height="30" viewBox="0 0 30 30" xmlns="http://www.w3.org/2000/svg">
  <path d="M15 30c8.284 0 15-6.716 15-15 0-8.284-6.716-15-15-15C6.716 0 0 6.716 0 15c0 8.284 6.716 15 15 15zm5.445-19.242a.998.998 0 0 0 0-1.415.998.998 0 0 0-1.415 0l-4.242 4.243-4.242-4.242a.998.998 0 0 0-1.415 0 .998.998 0 0 0 .001 1.414L13.374 15l-4.242 4.242a.998.998 0 0 0 0 1.415.998.998 0 0 0 1.414 0l4.242-4.243 4.242 4.242a.998.998 0 0 0 1.415 0 .998.998 0 0 0 0-1.414L16.203 15l4.242-4.242z" fill="#050505" fill-rule="evenodd"/>
</svg>
