<?xml version="1.0" encoding="UTF-8" standalone="no"?>
<svg width="30" height="30" viewBox="0 0 30 30" xmlns="http://www.w3.org/2000/svg">
  <path d="M5.381 2L8.44 18.058C8.75 19.686 10.343 21 12 21h11c1.666 0 3.369-1.291 3.824-2.884l2.628-9.199C29.756 7.855 29.106 7 28.002 7H11.996a.89.89 0 0 0-.895 1c.056.556.546 1 1.095 1h14.31c.542 0 .866.43.707.959l-2.137 7.125c-.32 1.063-1.473 1.916-2.58 1.916h-9.99c-1.108 0-2.167-.878-2.366-1.962L7.18.982C7.08.432 6.552 0 6 0a1.052 1.052 0 0 0-.003 0H1.003A.994.994 0 0 0 0 1c0 .556.449 1 1.003 1H5.38zM9 24c0-.552.445-1 .993-1h16.014c.548 0 .993.444.993 1 0 .552-.445 1-.993 1H9.993A.994.994 0 0 1 9 24zm3.5 5a1.5 1.5 0 1 0 0-3 1.5 1.5 0 0 0 0 3zm11 0a1.5 1.5 0 1 0 0-3 1.5 1.5 0 0 0 0 3z" fill="#050505" fill-rule="evenodd"/>
</svg>
