<svg width="30" height="30" viewBox="0 0 30 30" xmlns="http://www.w3.org/2000/svg"><path d="M9.637 9c-.553 0-1.04-.438-1.092-1.003l-.364-4.01C8.08 2.89 7.1 2 6.002 2H2.991A.993.993 0 0 0 2 3c0 .552.448 1 .991 1h2.2c.547 0 1.032.455 1.081.992l1.547 17.017C7.919 23.11 8.89 24 10 24h14c.552 0 1-.444 1-1 0-.552-.438-1-.996-1h-13.19c-.55 0-1.036-.444-1.087-1a.897.897 0 0 1 .917-1h12.347c1.11 0 2.244-.863 2.535-1.929l1.948-7.142C27.764 9.863 27.104 9 26.001 9H9.637zm.172 2c-.547 0-.951.438-.9 1.003l.454 4.994c.05.554.544 1.003 1.082 1.003h12.11c.547 0 1.11-.438 1.256-.973l1.378-5.054c.147-.537-.18-.973-.725-.973H9.809zM9.5 28a1.5 1.5 0 1 0 0-3 1.5 1.5 0 0 0 0 3zm14 0a1.5 1.5 0 1 0 0-3 1.5 1.5 0 0 0 0 3z" fill="#050505" fill-rule="evenodd"/></svg>