<?xml version="1.0" encoding="UTF-8" standalone="no"?>
<svg width="30px" height="30px" viewBox="0 0 30 30" version="1.1" xmlns="http://www.w3.org/2000/svg" xmlns:xlink="http://www.w3.org/1999/xlink" xmlns:sketch="http://www.bohemiancoding.com/sketch/ns">
    <!-- Generator: Sketch 3.4.2 (15855) - http://www.bohemiancoding.com/sketch -->
    <title>cart</title>
    <desc>Created with Sketch.</desc>
    <defs></defs>
    <g id="Icons" stroke="none" stroke-width="1" fill="none" fill-rule="evenodd" sketch:type="MSPage">
        <g id="cart" sketch:type="MSArtboardGroup" fill="#050505">
            <path d="M5.38095238,2 L8.43960536,18.0579282 C8.74978209,19.6863559 10.3432023,21 12.0001262,21 L22.9998738,21 C24.6660385,21 26.345296,19.7051399 26.7712402,18.1078491 L29.4852588,7.93027966 C29.7676536,6.87129883 29.1057238,6 28.0025781,6 L11.9947712,6 C11.4509254,6 11.0447708,6.44771525 11.0999985,7 C11.1556111,7.55613518 11.645519,8 12.1950983,8 L26.5048987,8 C27.0470322,8 27.3831542,8.42843442 27.2390177,8.95693506 L25.0259931,17.0713587 C24.735405,18.1368484 23.608164,19 22.5080285,19 L12.9919715,19 C11.8857727,19 10.8150916,18.1216853 10.5869956,17.0382291 L7.20663437,0.981513234 C7.09106112,0.432540298 6.55228475,1.03292886e-13 6,1.14575016e-13 C5.99951148,1.14584996e-13 5.99902311,3.40187298e-07 5.99853489,1.02033263e-06 C5.99804735,3.45068384e-07 5.99755905,0 5.99707067,0 L1.00292933,0 C0.437881351,0 0,0.44771525 0,1 C0,1.55613518 0.449026756,2 1.00292933,2 L5.38095238,2 Z M9,24 C9,23.4477153 9.44494629,23 9.99339768,23 L26.0066023,23 C26.5552407,23 27,23.4438648 27,24 C27,24.5522847 26.5550537,25 26.0066023,25 L9.99339768,25 C9.44475929,25 9,24.5561352 9,24 Z M12.5,29 C13.3284271,29 14,28.3284271 14,27.5 C14,26.6715729 13.3284271,26 12.5,26 C11.6715729,26 11,26.6715729 11,27.5 C11,28.3284271 11.6715729,29 12.5,29 Z M23.5,29 C24.3284271,29 25,28.3284271 25,27.5 C25,26.6715729 24.3284271,26 23.5,26 C22.6715729,26 22,26.6715729 22,27.5 C22,28.3284271 22.6715729,29 23.5,29 Z" id="Rectangle-90" sketch:type="MSShapeGroup"></path>
        </g>
    </g>
</svg>