<?xml version="1.0" encoding="UTF-8" standalone="no"?>
<svg width="60" height="40" viewBox="0 0 720 40" xmlns="http://www.w3.org/2000/svg">
  <view viewBox="0 0 60 40"/>
  <view viewBox="60 0 60 40"/>
  <view viewBox="120 0 60 40"/>
  <view viewBox="180 0 60 40"/>
  <view viewBox="240 0 60 40"/>
  <view viewBox="300 0 60 40"/>
  <view viewBox="360 0 60 40"/>
  <view viewBox="420 0 60 40"/>
  <view viewBox="480 0 60 40"/>
  <view viewBox="540 0 60 40"/>
  <view viewBox="0 0 60 40"/>
  <view viewBox="0 0 60 40"/>
  <view viewBox="600 0 60 40"/>
  <view viewBox="660 0 60 40"/>
  <g fill="none" fill-rule="evenodd">
    <path d="M715 40h-50c-2.75 0-5-2.25-5-5V5c0-2.75 2.25-5 5-5h50c2.75 0 5 2.25 5 5v30c0 2.75-2.25 5-5 5z" fill="#FFF"/>
    <path d="M715 1c2.206 0 4 1.794 4 4v30c0 2.206-1.794 4-4 4h-50c-2.206 0-4-1.794-4-4V5c0-2.206 1.794-4 4-4h50zm0-1h-50c-2.75 0-5 2.25-5 5v30c0 2.75 2.25 5 5 5h50c2.75 0 5-2.25 5-5V5c0-2.75-2.25-5-5-5z" fill="#D9D9D9"/>
    <g fill="#999">
      <path d="M688.5 30c4.694 0 8.5-4.477 8.5-10s-3.806-10-8.5-10c-1.736 0-3.351.613-4.697 1.664C681.511 13.455 680 16.52 680 20c0 5.523 3.806 10 8.5 10zm0-.74c4.303 0 7.792-4.146 7.792-9.26s-3.489-9.26-7.792-9.26c-1.592 0-3.072.568-4.305 1.541-2.102 1.659-3.487 4.497-3.487 7.719 0 5.114 3.489 9.26 7.792 9.26z"/>
      <path d="M683.05 19.414l5.915-1.478.1.403-5.15 1.214-.864-.139zM689.574 28.491s.39-.936 1.24-2.187a8.636 8.636 0 0 1 1.358-1.54l1.656-.15s-1.27.999-1.981 1.83c-.713.832-1.306 2.047-1.306 2.047h-.967z"/>
      <path d="M680.793 16.97a40.64 40.64 0 0 1-.766 2.596c-.016 1.688 1.06 5.51 1.105 5.602.14.285 1.147 1.578 1.492 1.926 1.531 1.547 3.187 2.817 6.076 2.817 1.944.004 5.058-1.261 5.912-2.986.104-.21.498-.394.606-.613.401-.81.66-1.814 1.137-2.297.087-.088.322-1.952.53-2.373.05-.434-.196-.629.076-.766V19.65h-.075c-.065-3.104-1.934-6.49-3.941-7.504-.077-.039-.076-.268-.152-.306-1.075-.543-1.321-.515-2.274-.996-.564-.003-.704-.011-.985-.153-1.524-.05-4.402-.005-4.717.949-.032.097-.32.127-.392.2-.227.23-1.018.886-1.1 1.05-1.115.594-2.264 2.997-2.532 4.078zm6.497-3.608s-1.697.65-2.373 2.207c-.535 1.233-.557 2.808-.545 3.432.003.164.008.259.008.259l-.635.155c0-.28-.145-2.406.635-3.846 1.049-1.934 2.91-2.207 2.91-2.207zm.47 1.732c.488.538 1.196 3.045 1.196 3.045l-1.512.4s-.88-2.724-.88-3c0-.855.7-.995 1.196-.445zm1.47 2.495s.629-.189.82-.237c1.638-.342.46.422.394.767 1.085-.21 1.854.214 1.854.214-.134-.547-.04-.757.054-.744.167.025.68.955.717 1.029.266.657.415.863.183.944-.327.116-.397.172-.468.228-.445.35.274.555 0 .832-.097.098-1.237.272-.69.36.672.108.648.235.565.272-.159.071-.93.16-.123.551.348.17.636.935-.139 1.176-.196.062-.629.1-.862.067-1.136-.157-2.687-1.293-2.687-1.293s2.218 2.227 2.462 2.35c.092.807-.184.906-.866.906-.531 0-2.395.025-2.395 0-.855.025-.985-.076-1.126-.844-.458-2.508.064-3.606.186-3.606.048 0 .537.371.99.28.458-.092 1.215-.643 1.208-2.415-.002-.445-.077-.837-.077-.837zm-3.35 1.919l1.258-.377-1.257 3.706v-3.33zm7.172 2.022c.178-.27.43-.314.313-.735-.053-.193-.336-.465-.313-.635 0-.06.688-.326.708-.565-.02-.894-.983-2.286-.983-2.286 1.258.156 1.42-.214 1.304-.798-.134-1.07-.932-2.22-2.711-2.843 0 0-.184-1.979-.135-2.177.038-.153 1.848 1.224 1.937 1.269 1.217.614 2.727 3.823 3.107 5.36v.459h.076v.536h.076v1.99h-.076v.766h-.076c-.002.975-.435 1.766-.627 2.54-.061 0-3.314-.455-3.703-.528-.14-.026-.318-.12-.487-.23-.302-.194-.58-.439-.58-.439s.638.161 1.011.161c.373 0 1.333-.23 1.333-.82 0-.684-.31-.818-.174-1.025zm-10.577 5.208l1.52-6.084-2.15 5.168.63.916zm5.484-.697l-.272 1.285.565.064.182-1.28-.475-.07zm1.857 2.053l-.292.669h-1.003l.492-.67h.803zm-1.287-12.32s-.508-1.137-1.033-1.185c1.72-.466 2.92.577 2.92.577-.903.236-1.887.608-1.887.608zm-2.988.595v-.372c.037-1.163-.557-.013-.75 1.117-.187 1.101-.122 2.113-.122 2.113l.872-.197v-2.66zm.684-.832c.06.184.31 1.129.31 1.129s-.274.106-.668.238c-.167-2.419.297-1.55.358-1.367zm2.82 1.748l-.408-1.206s1.237-.477 1.882-.64c.303-.076 1.674-.374 2.392-.168.59.168.917 1.528.735 1.656-.181.127-1.205-.333-2.91-.057-.581.093-1.69.415-1.69.415zm-.568 2.738c.184-.555-.17-.541-.368-.541-1.252-.026-.145 1.575.368.54zm-1.873-3.054c-.011-.016-.76.258-.76.258v1.734l1.313-.324s-.511-1.604-.553-1.668zm6.423 8.578h.673l-.438.452h-.925l.69-.452zm-1.26 1.187l.555-.499h.786l-.44.5h-.9zm-1.016-.703l.399-.349h.528l-.419.349h-.508zm1.074 1.884l-.437.832h-1.1l.537-.832h1zm-8.894-.523l2.586-2.228s-.22-1.416-.406-2.56c-.184-1.143-.688-1.455-.688-1.455l-1.492 6.243zm4.73-14.145l1.052-.136 2.202-.284.065.708s-.925-.237-1.495-.288c-.57-.05-1.824 0-1.824 0zm-6.999 8.855l.305 1.24 2.583-3.384-2.888 2.144zm8.147 4.038l-.149 1.286.524.05.08-1.283-.455-.053zm-5.033-5.981l-2.245 5.245-.423-1.556 2.668-3.69zm3.323 5.696l.459.101-.318 1.287-.657-.156.516-1.232zm3.73-14.285l.08.925-3.245.456 3.165-1.381zM691.525 27l-.445.519h1.03l.382-.519h-.967zm-1.506-.23h.677l.374-.459h-.626l-.425.46zm.405.41l-.366.51h-.771l.386-.51h.751zm-4.234-1.594l.463.147-.623 1.205-.623-.27.783-1.082z"/>
    </g>
    <path fill="#333" d="M664 34h20v2h-20zM671 30h5v2h-5zM664 30h5v2h-5zM666 23h11v2h-11zM679 23h17v2h-17zM698 23h15v2h-15zM708 18h6v2h-6z"/>
    <path d="M660 4c0-2.21 1.796-4 4.007-4h51.986A4.007 4.007 0 0 1 720 4v32c0 2.21-1.796 4-4.007 4h-51.986A4.007 4.007 0 0 1 660 36V4zm2 0c0-1.105.902-2 1.993-2h52.014c1.1 0 1.993.89 1.993 2v32c0 1.105-.902 2-1.993 2h-52.014c-1.1 0-1.993-.89-1.993-2V4z" fill="#D9D9D9"/>
    <path d="M710.719 27.438a8.719 8.719 0 1 0 0-17.438 8.719 8.719 0 0 0 0 17.438zm.062-1.875a6.781 6.781 0 1 0 0-13.563 6.781 6.781 0 0 0 0 13.563z" fill="#FF49D6"/>
    <path d="M670.559 7l.909-1.959h.306L672.683 7h-.37l-.236-.528h-.933L670.91 7h-.351zm1.044-1.557l-.34.759h.694l-.336-.759h-.018zM675.47 7h-.336V5.668h-.015l-.65 1.098h-.055l-.65-1.098h-.016V7h-.32V5.041h.344l.681 1.155h.006l.681-1.155h.33V7zm2.1-1.173v.3h-.753V6.7h1.326V7h-1.662V5.041h1.59v.3h-1.254v.486h.753zM679.293 7h-.336V5.041h1.08c.25 0 .439.069.567.207.104.11.156.241.156.393 0 .13-.04.243-.117.34a.722.722 0 0 1-.315.221l.468.798h-.387l-.42-.753h-.696V7zm.744-1.659h-.744v.606h.804c.088 0 .164-.03.23-.09a.284.284 0 0 0 .016-.411c-.068-.07-.17-.105-.306-.105zM681.975 7h-.336V5.041h.336V7zm2.65-.57l.225.222a1.32 1.32 0 0 1-.966.408c-.317 0-.574-.1-.773-.3a1.01 1.01 0 0 1-.299-.741 1.02 1.02 0 0 1 1.056-1.038 1.39 1.39 0 0 1 .918.345l-.227.225a.96.96 0 0 0-.317-.197 1.003 1.003 0 0 0-.367-.073c-.21 0-.381.071-.512.215a.75.75 0 0 0-.196.526c0 .208.066.383.2.525a.685.685 0 0 0 .523.213c.144 0 .28-.03.408-.091.128-.062.236-.141.327-.239zm.74.57l.91-1.959h.306L687.49 7h-.37l-.236-.528h-.933l-.234.528h-.351zm1.045-1.557l-.34.759h.694l-.336-.759h-.018zm3.255-.402h.336V7h-.297l-1.13-1.359h-.004V7h-.336V5.041h.297l1.131 1.359h.003V5.041zm3.445.786v.3h-.753V6.7h1.326V7h-1.662V5.041h1.59v.3h-1.254v.486h.753zm2.721-.786h.408l-.77.936.81 1.023h-.43l-.6-.786-.624.786h-.408l.831-1.008-.75-.951h.43l.54.714.563-.714zM697.365 7h-.336V5.041h1.08c.25 0 .438.069.567.207a.56.56 0 0 1 .156.393c0 .166-.06.307-.18.423-.129.122-.31.183-.543.183h-.744V7zm.744-1.659h-.744v.606h.744c.13 0 .228-.032.297-.096a.283.283 0 0 0 .009-.405c-.067-.07-.168-.105-.306-.105zM699.948 7h-.336V5.041h1.08c.25 0 .439.069.567.207.104.11.156.241.156.393 0 .13-.04.243-.117.34a.722.722 0 0 1-.315.221l.468.798h-.387l-.42-.753h-.696V7zm.744-1.659h-.744v.606h.804c.088 0 .164-.03.23-.09a.284.284 0 0 0 .016-.411c-.068-.07-.17-.105-.306-.105zm2.691.486v.3h-.753V6.7h1.326V7h-1.662V5.041h1.59v.3h-1.254v.486h.753zm2.977-.561l-.204.234a.88.88 0 0 0-.282-.159 1.214 1.214 0 0 0-.43-.069.648.648 0 0 0-.316.069.228.228 0 0 0-.124.213c0 .048.013.087.04.119a.257.257 0 0 0 .132.07c.061.016.115.027.162.033a3.675 3.675 0 0 0 .254.021c.07.004.123.008.162.012.038.004.093.012.168.024.074.012.132.025.175.04.043.016.093.038.15.07a.414.414 0 0 1 .132.106.587.587 0 0 1 .116.354c0 .224-.081.39-.242.497-.161.107-.368.16-.622.16-.41 0-.767-.137-1.071-.411l.204-.234c.26.236.55.354.873.354a.77.77 0 0 0 .376-.081.26.26 0 0 0 .146-.24c0-.114-.046-.192-.138-.236a1.333 1.333 0 0 0-.43-.088 3.83 3.83 0 0 1-.325-.03 1.086 1.086 0 0 1-.297-.072.371.371 0 0 1-.124-.066.986.986 0 0 1-.092-.092.306.306 0 0 1-.066-.122.59.59 0 0 1-.02-.158.57.57 0 0 1 .071-.288.487.487 0 0 1 .19-.189.967.967 0 0 1 .251-.096 1.52 1.52 0 0 1 .8.057c.16.058.286.124.38.198zm2.54 0l-.203.234a.88.88 0 0 0-.282-.159 1.214 1.214 0 0 0-.43-.069.648.648 0 0 0-.316.069.228.228 0 0 0-.124.213c0 .048.013.087.04.119a.257.257 0 0 0 .132.07c.061.016.115.027.162.033a3.675 3.675 0 0 0 .254.021c.07.004.124.008.162.012.038.004.094.012.168.024.074.012.132.025.175.04.043.016.093.038.15.07a.414.414 0 0 1 .132.106.587.587 0 0 1 .116.354c0 .224-.08.39-.242.497-.16.107-.368.16-.622.16-.41 0-.767-.137-1.071-.411l.204-.234c.26.236.55.354.873.354a.77.77 0 0 0 .376-.081.26.26 0 0 0 .146-.24c0-.114-.046-.192-.138-.236a1.333 1.333 0 0 0-.43-.088 3.83 3.83 0 0 1-.325-.03 1.086 1.086 0 0 1-.297-.072.371.371 0 0 1-.124-.066.986.986 0 0 1-.092-.092.306.306 0 0 1-.066-.122.59.59 0 0 1-.02-.158.57.57 0 0 1 .071-.288.487.487 0 0 1 .19-.189.967.967 0 0 1 .251-.096 1.52 1.52 0 0 1 .8.057c.16.058.287.124.38.198z" fill="#999"/>
    <g>
      <path d="M660 35c0 2.75-2.25 5-5 5h-50c-2.75 0-5-2.25-5-5V5c0-2.75 2.25-5 5-5h50c2.75 0 5 2.25 5 5v30z" fill="#FFF"/>
      <path d="M600 4c0-2.21 1.796-4 4.007-4h51.986A4.007 4.007 0 0 1 660 4v32c0 2.21-1.796 4-4.007 4h-51.986A4.007 4.007 0 0 1 600 36V4zm2 0c0-1.105.902-2 1.993-2h52.014c1.1 0 1.993.89 1.993 2v32c0 1.105-.902 2-1.993 2h-52.014c-1.1 0-1.993-.89-1.993-2V4z" fill="#D9D9D9"/>
      <path fill="#333" d="M600 7h59v8h-59z"/>
      <path fill="#D9D9D9" d="M604 19h36v8h-36z"/>
      <path fill="#333" d="M608 22h29v2h-29z"/>
      <path fill="#D9D9D9" d="M646 19h8v8h-8z"/>
      <path fill="#333" d="M648 22h4v2h-4z"/>
      <path d="M649.719 31.438a8.719 8.719 0 1 0 0-17.438 8.719 8.719 0 0 0 0 17.438zm.062-1.875a6.781 6.781 0 1 0 0-13.563 6.781 6.781 0 0 0 0 13.563z" fill="#FF49D6"/>
    </g>
    <g>
      <path d="M600 35c0 2.75-2.25 5-5 5h-50c-2.75 0-5-2.25-5-5V5c0-2.75 2.25-5 5-5h50c2.75 0 5 2.25 5 5v30z" fill="#2D2583"/>
      <path d="M551 3l35 4 2-4h-37zM550 1l38 2 1-2h-39zM553 7l31 4 2-4h-33zM555 11l27 4 2-4h-29zM557 15l23 4 2-4h-25zM559 19l19 4 2-4h-21zM562 23l14 4 2-4h-16zM564 27l10 4 2-4h-12zM566 31l6 4 2-4h-8zM568 35l3 2 1-2h-4z" fill="#EB5292"/>
      <path fill="#EB5292" d="M541 3h58v1h-58zM541 7h58v1h-58zM541 11h58v1h-58zM541 15h58v1h-58zM541 19h58v1h-58zM541 23h58v1h-58zM541 27h58v1h-58zM541 31h58v1h-58zM541 35h58v1h-58z"/>
      <path d="M540 4c0-2.21 1.796-4 4.007-4h51.986A4.007 4.007 0 0 1 600 4v32c0 2.21-1.796 4-4.007 4h-51.986A4.007 4.007 0 0 1 540 36V4zm2 0c0-1.105.902-2 1.993-2h52.014c1.1 0 1.993.89 1.993 2v32c0 1.105-.902 2-1.993 2h-52.014c-1.1 0-1.993-.89-1.993-2V4z" fill="#2D2583"/>
    </g>
    <g>
      <path d="M540 35c0 2.75-2.25 5-5 5h-50c-2.75 0-5-2.25-5-5V5c0-2.75 2.25-5 5-5h50c2.75 0 5 2.25 5 5v30z" fill="#FFF"/>
      <path d="M497.006 11c-1.108 0-2.199.868-2.442 1.96l-3.128 14.08c-.24 1.082.461 1.96 1.57 1.96h9.988c1.108 0 2.199-.868 2.442-1.96l3.128-14.08c.24-1.082-.461-1.96-1.57-1.96h-9.988z" fill="#DD0228"/>
      <path d="M507.006 11c-1.108 0-2.199.868-2.442 1.96l-3.128 14.08c-.24 1.082.461 1.96 1.57 1.96h9.988c1.108 0 2.199-.868 2.442-1.96l3.128-14.08c.24-1.082-.461-1.96-1.57-1.96h-9.988z" fill="#024381"/>
      <path d="M517.003 11c-1.106 0-2.196.868-2.439 1.96l-3.128 14.08c-.24 1.082.458 1.96 1.567 1.96h8.994c1.106 0 2.196-.868 2.439-1.96l3.128-14.08c.24-1.082-.458-1.96-1.567-1.96h-8.994z" fill="#01798A"/>
      <path d="M480 4c0-2.21 1.796-4 4.007-4h51.986A4.007 4.007 0 0 1 540 4v32c0 2.21-1.796 4-4.007 4h-51.986A4.007 4.007 0 0 1 480 36V4zm2 0c0-1.105.902-2 1.993-2h52.014c1.1 0 1.993.89 1.993 2v32c0 1.105-.902 2-1.993 2h-52.014c-1.1 0-1.993-.89-1.993-2V4z" fill="#D9D9D9"/>
    </g>
    <g transform="translate(420)">
      <path d="M60 35c0 2.75-2.25 5-5 5H5c-2.75 0-5-2.25-5-5V5c0-2.75 2.25-5 5-5h50c2.75 0 5 2.25 5 5v30z" fill="#FFF"/>
      <circle fill="#007DD8" cx="22.5" cy="19" r="10"/>
      <path d="M37.449 9a9.97 9.97 0 0 0-8.644 5h2.288c.364.625.647 1.299.871 2H27.92a9.898 9.898 0 0 0-.419 2h4.879c.034.33.068.66.068 1 0 .338-.02.671-.053 1H27.5c.069.691.216 1.357.419 2h4.056a10.017 10.017 0 0 1-.886 2h-2.285a9.968 9.968 0 0 0 8.644 5c5.522 0 10-4.479 10-10 .001-5.523-4.477-10-9.999-10z" fill="#E12D01"/>
      <path d="M0 4c0-2.21 1.796-4 4.007-4h51.986A4.007 4.007 0 0 1 60 4v32c0 2.21-1.796 4-4.007 4H4.007A4.007 4.007 0 0 1 0 36V4zm2 0c0-1.105.902-2 1.993-2h52.014C57.107 2 58 2.89 58 4v32c0 1.105-.902 2-1.993 2H3.993C2.893 38 2 37.11 2 36V4z" fill="#D9D9D9"/>
    </g>
    <g>
      <path d="M420 35c0 2.75-2.25 5-5 5h-50c-2.75 0-5-2.25-5-5V5c0-2.75 2.25-5 5-5h50c2.75 0 5 2.25 5 5v30z" fill="#FFF"/>
      <g fill="#22337B">
        <path d="M396.873 25.804l2.888.008.603-1.591 3.695.02.376 1.565 2.563-.002-2.293-10.575-2.534.003s-.639-.04-.95.574c-.351.72-4.348 9.998-4.348 9.998zm5.841-7.72l.913 3.964-2.353-.011 1.44-3.952zM389.353 23.257l-.37 2.196s1.52.568 3.21.517c1.69-.05 4.742-.354 4.742-3.305 0-3.36-4.077-2.52-4.077-4.399 0-1.88 4.215-.55 4.215-.55s.272-1.864.337-2.186c-.385-.165-.317-.177-1.342-.349-2.39-.4-5.955.22-5.955 3.258 0 3.037 4.014 2.493 4.014 4.121 0 2.141-4.774.697-4.774.697zM386.126 15.187h2.802l-1.758 10.6h-2.772l1.728-10.6zM374.973 16.45l2.54 9.379h2.958l4.44-10.638-2.92.003-2.82 7.27-.39-1.821.01.016-.853-4.2s-.154-.727-.458-.994c-.304-.266-.718-.263-.718-.263l-4.698-.053c-.212 0-.228.257 0 .257.766.103 1.786.448 2.909 1.044z"/>
      </g>
      <path d="M360 4c0-2.21 1.796-4 4.007-4h51.986A4.007 4.007 0 0 1 420 4v32c0 2.21-1.796 4-4.007 4h-51.986A4.007 4.007 0 0 1 360 36V4zm2 0c0-1.105.902-2 1.993-2h52.014c1.1 0 1.993.89 1.993 2v32c0 1.105-.902 2-1.993 2h-52.014c-1.1 0-1.993-.89-1.993-2V4z" fill="#D9D9D9"/>
    </g>
    <g>
      <path d="M360 35c0 2.75-2.25 5-5 5h-50c-2.75 0-5-2.25-5-5V5c0-2.75 2.25-5 5-5h50c2.75 0 5 2.25 5 5v30z" fill="#FFF"/>
      <g transform="translate(317 10)">
        <path d="M9.75.003C4.343.136 0 4.561 0 10c0 5.44 4.343 9.864 9.75 9.997V20h7.167c5 0 9.999-4.479 9.999-10 0-5.522-4.999-10-9.999-10H9.75v.003z" fill="#0079BE"/>
        <circle fill="#FFF" cx="9.941" cy="9.941" r="8.941"/>
        <path d="M12 15.564a5.963 5.963 0 0 0 0-11.206v11.206zM8 4.33a5.963 5.963 0 0 0 0 11.262V4.33z" fill="#0079BE"/>
      </g>
      <path d="M300 4c0-2.21 1.796-4 4.007-4h51.986A4.007 4.007 0 0 1 360 4v32c0 2.21-1.796 4-4.007 4h-51.986A4.007 4.007 0 0 1 300 36V4zm2 0c0-1.105.902-2 1.993-2h52.014c1.1 0 1.993.89 1.993 2v32c0 1.105-.902 2-1.993 2h-52.014c-1.1 0-1.993-.89-1.993-2V4z" fill="#D9D9D9"/>
    </g>
    <g>
      <path d="M300 35c0 2.75-2.25 5-5 5h-50c-2.75 0-5-2.25-5-5V5c0-2.75 2.25-5 5-5h50c2.75 0 5 2.25 5 5v30z" fill="#FFF"/>
      <g transform="translate(250 17)">
        <path d="M4.885 2.943c0 1.002-.285 1.769-.854 2.302-.571.532-1.395.799-2.472.799H-.165V-.041h1.91c.994 0 1.765.263 2.313.787.552.524.827 1.257.827 2.197zm-1.34.034c0-1.307-.578-1.96-1.73-1.96h-.688v3.961h.554c1.243.001 1.864-.667 1.864-2.001zM5.976 6.044V-.041h1.29v6.085h-1.29zM12.391 4.354c0 .551-.197.982-.594 1.299-.396.316-.945.476-1.65.476-.648 0-1.224-.123-1.724-.366V4.564a7.2 7.2 0 0 0 1.043.389c.284.074.545.111.781.111.282 0 .5-.055.651-.162.148-.107.227-.27.227-.482a.524.524 0 0 0-.101-.318 1.05 1.05 0 0 0-.294-.269 7.666 7.666 0 0 0-.788-.412c-.371-.175-.649-.344-.837-.504a1.845 1.845 0 0 1-.445-.562 1.613 1.613 0 0 1-.166-.75c0-.538.182-.961.547-1.269.366-.309.869-.462 1.514-.462.316 0 .618.037.905.112.287.074.588.181.901.316l-.416 1.003a5.915 5.915 0 0 0-.807-.279 2.638 2.638 0 0 0-.626-.079c-.245 0-.433.056-.562.171a.561.561 0 0 0-.196.445c0 .114.026.212.079.298a.87.87 0 0 0 .252.245c.115.079.389.221.818.427.568.272.958.545 1.17.818.212.271.318.606.318 1.003zM16.078.945c-.486 0-.861.184-1.128.547-.268.365-.399.875-.399 1.526 0 1.356.509 2.035 1.527 2.035.428 0 .943-.104 1.553-.32v1.082c-.5.209-1.058.312-1.674.312-.885 0-1.562-.27-2.031-.807-.469-.536-.703-1.307-.703-2.312 0-.633.116-1.187.347-1.662a2.48 2.48 0 0 1 .992-1.095c.433-.254.938-.381 1.518-.381.591 0 1.186.143 1.781.429l-.416 1.049a7.07 7.07 0 0 0-.688-.283 2.04 2.04 0 0 0-.679-.12zM27.959-.041h1.303l-2.067 6.085h-1.407L23.724-.041h1.304l1.145 3.621a13.893 13.893 0 0 1 .325 1.34c.03-.255.134-.699.312-1.34l1.149-3.621zM33.532 6.044h-3.505V-.041h3.505v1.058h-2.215v1.336h2.062V3.41h-2.062v1.568h2.215v1.066zM36.092 3.709v2.335h-1.29V-.041h1.773c.827 0 1.438.15 1.836.452.396.301.595.757.595 1.371 0 .357-.099.677-.295.955a1.956 1.956 0 0 1-.836.656 240.782 240.782 0 0 0 1.789 2.65h-1.432l-1.453-2.335-.687.001zm0-1.049h.417c.407 0 .709-.068.903-.203.193-.137.291-.351.291-.642 0-.289-.1-.493-.298-.616-.198-.123-.505-.183-.921-.183h-.394l.002 1.644z" fill="#666"/>
        <circle fill="#F60" cx="21.043" cy="3.043" r="3.043"/>
      </g>
      <path d="M299.914 27.5V35c0 .688-.141 1.344-.395 1.941a5.061 5.061 0 0 1-2.664 2.664 4.958 4.958 0 0 1-1.941.395H250l49.914-12.5z" fill="#F60"/>
      <path d="M240 4c0-2.21 1.796-4 4.007-4h51.986A4.007 4.007 0 0 1 300 4v32c0 2.21-1.796 4-4.007 4h-51.986A4.007 4.007 0 0 1 240 36V4zm2 0c0-1.105.902-2 1.993-2h52.014c1.1 0 1.993.89 1.993 2v32c0 1.105-.902 2-1.993 2h-52.014c-1.1 0-1.993-.89-1.993-2V4z" fill="#D9D9D9"/>
    </g>
    <g>
      <path d="M240 35c0 2.75-2.25 5-5 5h-50c-2.75 0-5-2.25-5-5V5c0-2.75 2.25-5 5-5h50c2.75 0 5 2.25 5 5v30z" fill="#FFF"/>
      <path d="M197.75 30h-8V15c0-2.762 3.238-5 6-5h6v15c0 2.762-1.238 5-4 5z" fill="#0563AF"/>
      <path d="M211.75 30h-8V15c0-2.762 3.238-5 6-5h6v15c0 2.762-1.238 5-4 5z" fill="#DC0438"/>
      <path d="M225.75 30h-8V15c0-2.762 3.238-5 6-5h6v15c0 2.762-1.238 5-4 5z" fill="#4DAB33"/>
      <path d="M180 4c0-2.21 1.796-4 4.007-4h51.986A4.007 4.007 0 0 1 240 4v32c0 2.21-1.796 4-4.007 4h-51.986A4.007 4.007 0 0 1 180 36V4zm2 0c0-1.105.902-2 1.993-2h52.014c1.1 0 1.993.89 1.993 2v32c0 1.105-.902 2-1.993 2h-52.014c-1.1 0-1.993-.89-1.993-2V4z" fill="#D9D9D9"/>
    </g>
    <g>
      <path d="M175 40h-50c-2.75 0-5-2.25-5-5V5c0-2.75 2.25-5 5-5h50c2.75 0 5 2.25 5 5v30c0 2.75-2.25 5-5 5z" fill="#D7B655"/>
      <path d="M150.5 35c6.904 0 12.5-6.492 12.5-14.5S157.404 6 150.5 6c-2.553 0-4.928.888-6.907 2.413C140.223 11.01 138 15.453 138 20.5c0 8.008 5.596 14.5 12.5 14.5zm0-1.074c6.328 0 11.458-6.011 11.458-13.426S156.828 7.074 150.5 7.074c-2.34 0-4.517.822-6.331 2.234-3.09 2.405-5.127 6.52-5.127 11.192 0 7.415 5.13 13.426 11.458 13.426z" fill="#634D1E"/>
      <path d="M142.695 19.391l8.698-2.143.146.584-7.573 1.76-1.271-.2zM151.62 33.294s.574-1.358 1.824-3.172a12.587 12.587 0 0 1 1.998-2.233l2.435-.217s-1.866 1.448-2.914 2.653c-1.047 1.206-1.92 2.969-1.92 2.969h-1.422z" fill="#634D1E"/>
      <path d="M139.166 15.643c-.31 1.234-.82 2.85-1.126 3.765-.023 2.448 1.558 7.99 1.625 8.123.207.413 1.686 2.287 2.194 2.793 2.251 2.243 4.686 4.084 8.936 4.084 2.858.006 7.438-1.829 8.693-4.33.153-.304.733-.572.892-.888.59-1.175.97-2.631 1.672-3.33.128-.129.473-2.831.78-3.443.073-.629-.289-.91.111-1.11v-1.776h-.111c-.095-4.5-2.844-9.41-5.796-10.88-.112-.057-.11-.389-.223-.445-1.58-.787-1.943-.746-3.343-1.443-.83-.005-1.037-.017-1.45-.222-2.24-.073-6.473-.008-6.936 1.375-.047.14-.471.185-.576.29-.335.333-1.498 1.285-1.618 1.524-1.64.86-3.33 4.344-3.724 5.913zm9.554-5.231s-2.495.942-3.489 3.2c-.787 1.788-.82 4.072-.802 4.976.004.238.013.376.013.376l-.935.224c0-.406-.213-3.487.935-5.576 1.542-2.804 4.278-3.2 4.278-3.2zm.692 2.51c.717.781 1.759 4.417 1.759 4.417l-2.224.578s-1.293-3.948-1.293-4.348c0-1.24 1.027-1.443 1.758-.646zm2.16 3.62s.927-.275 1.209-.345c2.407-.496.674.612.577 1.113 1.596-.306 2.728.31 2.728.31-.198-.793-.06-1.098.079-1.078.245.035 1 1.383 1.054 1.49.392.954.61 1.252.27 1.37-.482.168-.585.25-.69.33-.654.508.404.805 0 1.207-.142.142-1.818.395-1.013.522.987.157.952.34.83.394-.233.103-1.367.233-.18.8.512.244.934 1.354-.205 1.705-.288.089-.925.144-1.268.097-1.67-.228-3.952-1.875-3.952-1.875s3.262 3.229 3.622 3.408c.135 1.169-.272 1.312-1.275 1.312-.78 0-3.522.037-3.522 0-1.257.037-1.448-.109-1.655-1.222-.674-3.637.094-5.23.273-5.23.071 0 .79.539 1.457.406.673-.133 1.786-.933 1.775-3.502-.002-.644-.113-1.212-.113-1.212zm-4.924 2.781l1.848-.546-1.848 5.374v-4.828zm10.546 2.932c.262-.391.633-.454.461-1.066-.078-.279-.494-.673-.461-.92 0-.087 1.011-.473 1.042-.82-.03-1.296-1.447-3.314-1.447-3.314 1.85.226 2.089-.31 1.919-1.156-.198-1.553-1.372-3.221-3.987-4.123 0 0-.27-2.87-.198-3.157.055-.221 2.717 1.774 2.847 1.84 1.79.891 4.011 5.544 4.57 7.771v.666h.112v.777h.111v2.887h-.111v1.11h-.112c-.003 1.414-.64 2.561-.922 3.684-.09 0-4.874-.66-5.446-.766-.206-.038-.467-.174-.716-.333-.444-.283-.852-.637-.852-.637s.937.233 1.486.233c.548 0 1.96-.333 1.96-1.189 0-.992-.457-1.187-.256-1.487zm-15.555 7.552l2.235-8.822-3.161 7.494.926 1.328zm8.065-1.01l-.4 1.863.832.092.267-1.855-.7-.1zm2.731 2.976l-.428.97h-1.476l.723-.97h1.181zm-1.893-17.864s-.747-1.648-1.519-1.718c2.531-.675 4.295.836 4.295.836a32.927 32.927 0 0 0-2.776.882zm-4.394.864c.002-.034-.001-.509 0-.54.055-1.687-.818-.02-1.101 1.619-.276 1.597-.18 3.064-.18 3.064l1.281-.285v-3.858zm1.007-1.207c.089.266.454 1.636.454 1.636s-.402.155-.98.346c-.246-3.507.436-2.249.526-1.982zm4.147 2.535l-.6-1.749s1.819-.692 2.768-.928c.445-.11 2.46-.543 3.517-.245.868.245 1.348 2.217 1.081 2.402-.267.184-1.772-.483-4.28-.083-.854.136-2.486.603-2.486.603zm-.837 3.969c.272-.804-.248-.785-.54-.785-1.841-.037-.213 2.285.54.785zm-2.754-4.428c-.016-.024-1.116.375-1.116.375v2.513l1.93-.469s-.752-2.326-.814-2.419zm9.446 12.438h.99l-.644.656h-1.36l1.014-.656zm-1.851 1.722l.815-.724h1.155l-.647.724h-1.323zm-1.496-1.02l.587-.506h.777l-.616.506h-.748zm1.58 2.731l-.643 1.207h-1.617l.788-1.207h1.471zm-13.08-.757l3.804-3.231s-.326-2.053-.597-3.711c-.272-1.658-1.012-2.11-1.012-2.11l-2.195 9.052zm6.956-20.511l1.547-.197 3.239-.412.095 1.026s-1.36-.343-2.198-.417c-.838-.074-2.683 0-2.683 0zm-10.292 12.84l.448 1.797 3.799-4.906-4.247 3.109zm11.98 5.855l-.218 1.865.77.072.118-1.86-.67-.077zm-7.4-8.673l-3.303 7.606-.621-2.256 3.924-5.35zm4.886 8.26l.674.147-.467 1.866-.967-.226.76-1.788zm5.485-20.714l.119 1.342-4.773.66 4.654-2.002zm1.024 22.376l-.655.752h1.515l.56-.752h-1.42zm-2.216-.333h.997l.55-.666h-.922l-.625.666zm.597.592l-.539.74h-1.134l.568-.74h1.105zm-6.227-2.31l.681.214-.916 1.746-.916-.39 1.15-1.57z" fill="#634D1E"/>
      <path d="M120 4c0-2.21 1.796-4 4.007-4h51.986A4.007 4.007 0 0 1 180 4v32c0 2.21-1.796 4-4.007 4h-51.986A4.007 4.007 0 0 1 120 36V4zm2 0c0-1.105.902-2 1.993-2h52.014c1.1 0 1.993.89 1.993 2v32c0 1.105-.902 2-1.993 2h-52.014c-1.1 0-1.993-.89-1.993-2V4z" fill="#634D1E"/>
    </g>
    <g transform="translate(60)">
      <path d="M60 35c0 2.75-2.25 5-5 5H5c-2.75 0-5-2.25-5-5V5c0-2.75 2.25-5 5-5h50c2.75 0 5 2.25 5 5v30z" fill="#FFF"/>
      <circle fill="#ED3B32" cx="22.5" cy="19" r="10"/>
      <path d="M37.449 9a9.97 9.97 0 0 0-8.644 5h2.288c.364.625.647 1.299.871 2H27.92a9.898 9.898 0 0 0-.419 2h4.879c.034.33.068.66.068 1 0 .338-.02.671-.053 1H27.5c.069.691.216 1.357.419 2h4.056a10.017 10.017 0 0 1-.886 2h-2.285a9.968 9.968 0 0 0 8.644 5c5.522 0 10-4.479 10-10 .001-5.523-4.477-10-9.999-10z" fill="#FAB946"/>
      <path d="M0 4c0-2.21 1.796-4 4.007-4h51.986A4.007 4.007 0 0 1 60 4v32c0 2.21-1.796 4-4.007 4H4.007A4.007 4.007 0 0 1 0 36V4zm2 0c0-1.105.902-2 1.993-2h52.014C57.107 2 58 2.89 58 4v32c0 1.105-.902 2-1.993 2H3.993C2.893 38 2 37.11 2 36V4z" fill="#D9D9D9"/>
    </g>
    <g>
      <path d="M60 35c0 2.75-2.25 5-5 5H5c-2.75 0-5-2.25-5-5V5c0-2.75 2.25-5 5-5h50c2.75 0 5 2.25 5 5v30z" fill="#FFF"/>
      <path d="M0 4c0-2.21 1.796-4 4.007-4h51.986A4.007 4.007 0 0 1 60 4v32c0 2.21-1.796 4-4.007 4H4.007A4.007 4.007 0 0 1 0 36V4zm2 0c0-1.105.902-2 1.993-2h52.014C57.107 2 58 2.89 58 4v32c0 1.105-.902 2-1.993 2H3.993C2.893 38 2 37.11 2 36V4z" fill="#D9D9D9"/>
      <path d="M30 30c5.523 0 10-4.477 10-10s-4.477-10-10-10-10 4.477-10 10 4.477 10 10 10zm-1.858-4.848a3.259 3.259 0 0 1-.854-.336 2.958 2.958 0 0 1-.679-.525c-.191-.2-.34-.425-.448-.672a1.931 1.931 0 0 1-.161-.777c0-.215.037-.42.112-.616.075-.196.175-.371.301-.525.126-.154.27-.275.434-.364.163-.089.334-.133.511-.133.28 0 .509.112.686.336a1.246 1.246 0 0 0-.623.539 1.667 1.667 0 0 0-.231.875c0 .373.1.686.301.938.2.252.478.43.833.532l1.106-4.55a11.629 11.629 0 0 1-.707-.56 4.24 4.24 0 0 1-.602-.63 3.143 3.143 0 0 1-.42-.728 2.303 2.303 0 0 1-.161-.882c0-.392.084-.76.252-1.106.168-.345.397-.649.686-.91.29-.261.632-.467 1.029-.616a4.12 4.12 0 0 1 1.295-.252l.294-1.19h.798l-.308 1.246c.588.103 1.062.322 1.421.658.36.336.539.747.539 1.232 0 .41-.124.74-.371.987s-.567.371-.959.371a.763.763 0 0 1-.364-.07.545.545 0 0 1-.21-.224c.215-.065.397-.21.546-.434.15-.224.224-.476.224-.756 0-.579-.331-.933-.994-1.064l-.896 3.71c.261.187.523.383.784.588.261.205.497.434.707.686.21.252.383.534.518.847.135.313.203.67.203 1.071 0 .467-.1.905-.301 1.316-.2.41-.471.77-.812 1.078-.34.308-.737.553-1.19.735a3.848 3.848 0 0 1-1.449.273h-.056l-.462 1.904h-.798l.476-2.002zm3.346-2.632c0-.448-.135-.84-.406-1.176a5.95 5.95 0 0 0-.98-.952l-.994 4.116c.336-.01.651-.068.945-.175.294-.107.546-.247.756-.42.21-.173.376-.378.497-.616s.182-.497.182-.777zm-2.576-5.992c0 .336.089.63.266.882.177.252.401.495.672.728l.77-3.206c-.513.047-.926.212-1.239.497-.313.285-.469.651-.469 1.099z" fill="#999"/>
    </g>
  </g>
</svg>
