<?xml version="1.0" encoding="UTF-8" standalone="no"?>
<svg width="60px" height="40px" viewBox="0 0 720 40" version="1.1" xmlns="http://www.w3.org/2000/svg" xmlns:xlink="http://www.w3.org/1999/xlink" xmlns:sketch="http://www.bohemiancoding.com/sketch/ns">
    <!-- Generator: Sketch 3.4.2 (15855) - http://www.bohemiancoding.com/sketch -->
    <view id="unknown" viewBox="0 0 60 40"/>
    <view id="mastercard" viewBox="60 0 60 40"/>
    <view id="amex" viewBox="120 0 60 40"/>
    <view id="jcb" viewBox="180 0 60 40"/>
    <view id="discover" viewBox="240 0 60 40"/>
    <view id="dinersclub" viewBox="300 0 60 40"/>
    <view id="visa" viewBox="360 0 60 40"/>
    <view id="visaelectron" viewBox="420 0 60 40"/>
    <view id="maestro" viewBox="480 0 60 40"/>
    <view id="unionpay" viewBox="540 0 60 40"/>
    <view id="forbrugsforeningen" viewBox="0 0 60 40"/>
    <view id="dankort" viewBox="0 0 60 40"/>

    <view id="cvc" viewBox="600 0 60 40"/>
    <view id="amex-cvc" viewBox="660 0 60 40"/>
    <title>credit-cards</title>
    <defs></defs>
    <g stroke="none" stroke-width="1" fill="none" fill-rule="evenodd">
        <g transform="translate(660.000000, 0.000000)">
            <path d="M55,40 L5,40 C2.25,40 0,37.75 0,35 L0,5 C0,2.25 2.25,0 5,0 L55,0 C57.75,0 60,2.25 60,5 L60,35 C60,37.75 57.75,40 55,40 Z"  fill="#FFFFFF" ></path>
            <path d="M55,1 C57.206,1 59,2.794 59,5 L59,35 C59,37.206 57.206,39 55,39 L5,39 C2.794,39 1,37.206 1,35 L1,5 C1,2.794 2.794,1 5,1 L55,1 L55,1 Z M55,0 L5,0 C2.25,0 0,2.25 0,5 L0,35 C0,37.75 2.25,40 5,40 L55,40 C57.75,40 60,37.75 60,35 L60,5 C60,2.25 57.75,0 55,0 L55,0 L55,0 Z"  fill="#D9D9D9"></path>
            <g  transform="translate(20.000000, 10.000000)" fill="#999999">
                <path d="M8.5,20 C13.1944204,20 17,15.5228475 17,10 C17,4.4771525 13.1944204,0 8.5,0 C6.76364335,0 5.1488879,0.612513695 3.80332756,1.6639012 C1.51102591,3.4550489 0,6.51992503 0,10 C0,15.5228475 3.80557963,20 8.5,20 Z M8.5,19.2592593 C12.8032187,19.2592593 16.2916667,15.1137477 16.2916667,10 C16.2916667,4.88625232 12.8032187,0.740740741 8.5,0.740740741 C6.90833974,0.740740741 5.42814724,1.30788305 4.19471693,2.28139 C2.09344041,3.93986009 0.708333333,6.77770836 0.708333333,10 C0.708333333,15.1137477 4.19678132,19.2592593 8.5,19.2592593 Z" ></path>
                <path d="M3.05071869,9.41414201 L8.9653712,7.93591574 L9.0650238,8.33856692 L3.9155131,9.55275963 L3.05071869,9.41414201 Z" ></path>
                <path d="M9.57391184,18.4913216 C9.57391184,18.4913216 9.96389594,17.5546205 10.8137546,16.3038668 C11.4293526,15.3978791 12.1724887,14.7637464 12.1724887,14.7637464 C12.1724887,14.7637464 13.8281055,14.6139616 13.8281055,14.6139616 C13.8281055,14.6139616 12.5589074,15.612542 11.8465966,16.4440216 C11.1342858,17.2755013 10.5408232,18.4913216 10.5408232,18.4913216 L9.57391184,18.4913216 Z" ></path>
                <path d="M0.792963211,6.96942564 C0.582328389,7.82064975 0.235462525,8.93539313 0.0273233955,9.56624695 C0.0112400514,11.2541914 1.08674117,15.07692 1.13193258,15.1682344 C1.27288646,15.4530481 2.27876174,16.7456092 2.62389217,17.0942972 C4.15507081,18.6412591 5.8105356,19.9110924 8.70042652,19.9110924 C10.6439976,19.9150766 13.7583475,18.6496112 14.6119141,16.9248811 C14.7156522,16.7152662 15.1101663,16.5306609 15.2182205,16.3123249 C15.6192331,15.5020324 15.8776351,14.4975703 16.355045,14.0152393 C16.4422341,13.9271515 16.6768267,12.0633602 16.8855632,11.6415841 C16.93532,11.2076681 16.6894266,11.0132528 16.9613515,10.8758889 L16.9613515,9.65077654 L16.8855632,9.65077654 C16.8211824,6.54723751 14.9518744,3.16096052 12.9445714,2.14696347 C12.868167,2.10836745 12.8693993,1.8792814 12.7929948,1.84068538 C11.7181571,1.29772685 11.4715169,1.32627462 10.5193458,0.84528161 C9.9546203,0.841862587 9.81463897,0.833859027 9.53409784,0.692142567 C8.01006272,0.642322647 5.13204582,0.687136965 4.8174188,1.64074749 C4.78546364,1.73760112 4.49667316,1.76849497 4.42521927,1.8406854 C4.19793198,2.07031555 3.4070813,2.7265902 3.32526653,2.89190641 C2.2098797,3.48498269 1.06061661,5.88777626 0.792963211,6.96942564 Z M7.28990186,3.36200037 C7.28990186,3.36200037 5.59317009,4.01191176 4.91708879,5.56903162 C4.38177865,6.80193372 4.35979728,8.37706431 4.37158291,9.00089914 C4.3746822,9.16494975 4.3804933,9.25966909 4.3804933,9.2596691 C4.38049333,9.25966924 3.74499257,9.41469857 3.74499257,9.41469857 C3.74499257,9.13436978 3.59965194,7.00949143 4.38049332,5.56903162 C5.4289703,3.63485012 7.28990186,3.36200037 7.28990186,3.36200037 Z M7.76040904,5.09359035 C8.24780228,5.63191406 8.95628349,8.13924452 8.95628349,8.13924452 C8.95628349,8.13924452 7.44411466,8.53814324 7.44411469,8.53814317 C7.44411462,8.53814317 6.56453451,5.8154328 6.56453451,5.53955392 C6.56453451,4.68413369 7.26322684,4.54445478 7.76040904,5.09359035 Z M9.22951755,7.58934051 C9.22951755,7.58934051 9.85902726,7.3999741 10.0508288,7.35152945 C11.6880187,7.0097778 10.5093943,7.77362144 10.4435575,8.11938612 C11.5285026,7.90814846 12.2984288,8.33265832 12.2984288,8.33265831 C12.1641031,7.78623538 12.2581814,7.5755672 12.3519083,7.5893405 C12.5186574,7.61384452 13.0322187,8.54366517 13.0688883,8.61776031 C13.3353555,9.27518274 13.4837544,9.48093296 13.2522404,9.5624488 C12.9250574,9.67764962 12.8546676,9.73407062 12.7835922,9.7899517 C12.3387121,10.1397262 13.0582797,10.3447263 12.7835922,10.6222453 C12.6865464,10.7202915 11.5472945,10.8941453 12.0942382,10.9822622 C12.7658997,11.090472 12.7416322,11.2167994 12.6587991,11.2540021 C12.5004793,11.325108 11.7292577,11.4146911 12.5361251,11.8053779 C12.8844985,11.9740609 13.171936,12.7395774 12.3970006,12.9814576 C12.2011655,13.0425835 11.7680266,13.0806463 11.5349731,13.0484152 C10.3987459,12.8912761 8.84772484,11.7551483 8.84772484,11.7551483 C8.84772484,11.7551483 11.065541,13.9818381 11.3101603,14.1054085 C11.4020741,14.9117055 11.1256523,15.0106427 10.4435575,15.010643 C9.91303935,15.010643 8.04864502,15.0361659 8.04864502,15.0106427 C7.19379426,15.0361659 7.06367074,14.9354038 6.92328389,14.1674385 C6.46479544,11.6593457 6.98715336,10.5609389 7.10887218,10.5609389 C7.15730539,10.5609389 7.64566679,10.9322945 8.09974669,10.8408416 C8.55724088,10.7487011 9.31410794,10.197531 9.30673294,8.42566421 C9.30488226,7.98103404 9.22951755,7.58934051 9.22951755,7.58934051 Z M5.88067118,9.50760764 L7.13759104,9.13113375 L5.88067118,12.8370076 L5.88067118,9.50760764 Z M13.0519409,11.5295438 C13.229905,11.259846 13.4820251,11.21623 13.3654683,10.7947257 C13.3122534,10.6022845 13.0294092,10.3304159 13.0519409,10.1595984 C13.0519409,10.1001909 13.7395562,9.83385153 13.7601878,9.59468414 C13.7395563,8.70051609 12.7765884,7.30912134 12.7765884,7.30912134 C14.0348918,7.46473803 14.1968728,7.09476212 14.081396,6.51142618 C13.9470097,5.44088233 13.1488065,4.29023209 11.3699519,3.66812561 C11.3699519,3.66812561 11.1863941,1.68910505 11.235411,1.49101613 C11.273158,1.33847209 13.0829724,2.71457916 13.1719363,2.75951964 C14.3892819,3.37446655 15.8991038,6.58309997 16.2792567,8.11938612 L16.2792567,8.57880325 L16.355045,8.57880325 L16.355045,9.1147899 L16.4308333,9.1147899 L16.4308333,11.1055974 L16.355045,11.1055974 L16.355045,11.8712927 L16.2792567,11.8712927 C16.2768252,12.8462875 15.8439093,13.6373438 15.6522471,14.4118952 C15.5907289,14.4118952 12.3377711,13.9559399 11.9486287,13.8834211 C11.8085972,13.8573255 11.6313429,13.7633483 11.4617874,13.6537225 C11.1601546,13.4587025 10.8828863,13.2141593 10.8828863,13.2141593 C10.8828863,13.2141593 11.5201009,13.3754278 11.893074,13.3754278 C12.2660472,13.3754278 13.2258709,13.1456181 13.2259114,12.555477 C13.2259584,11.8712926 12.9151701,11.7368148 13.0519409,11.5295438 Z M2.47480011,16.7376514 L3.99405925,10.6538027 L1.84476217,15.8221241 L2.47480011,16.7376514 Z M7.95863342,16.0407203 L7.68669637,17.3260303 L8.25223033,17.3899138 L8.43415578,16.1104813 L7.95863342,16.0407203 Z M9.81584676,18.0936718 L9.52449799,18.7625495 L8.52088165,18.7625495 L9.01296234,18.0936718 L9.81584676,18.0936718 Z M8.5287501,5.7741097 C8.5287501,5.7741097 8.02058665,4.63704739 7.4956487,4.58912349 C9.21685028,4.12331221 10.4164429,5.16579997 10.4164429,5.16579998 C9.51304118,5.40247343 8.5287501,5.7741097 8.5287501,5.7741097 Z M5.54064178,6.36945119 C5.54167526,6.34632712 5.5399545,6.01864587 5.54064178,5.99722716 C5.57796598,4.83403149 4.98414842,5.98396291 4.79188537,7.11371839 C4.60445012,8.21510526 4.66905975,9.22689098 4.66905975,9.22689098 L5.54064178,9.03013193 L5.54064178,6.36945119 Z M6.22506713,5.53706729 C6.28563691,5.72094135 6.53427123,6.66567515 6.53427123,6.66567515 C6.53427123,6.66567515 6.26077778,6.77237365 5.86739861,6.90434512 C5.70012919,4.4852733 6.16449735,5.35319323 6.22506713,5.53706729 Z M9.0453008,7.28538536 L8.63739522,6.07928555 C8.63739522,6.07928555 9.87426241,5.60238604 10.5193458,5.43945288 C10.8224991,5.36288336 12.1926157,5.06511917 12.9110007,5.27063752 C13.5010911,5.43945289 13.8279344,6.79924518 13.646398,6.92654383 C13.4648617,7.05384249 12.4414876,6.59369889 10.7352447,6.86962291 C10.1548286,6.96348456 9.0453008,7.28538536 9.0453008,7.28538536 Z M8.47652436,10.0225635 C8.66095727,9.46841273 8.307829,9.4816564 8.10912832,9.4816564 C6.85690683,9.45587195 7.96448645,11.0571954 8.47652436,10.0225635 Z M6.60374709,6.96917809 C6.59284149,6.95265107 5.84474437,7.22746984 5.84474437,7.22746984 L5.84474436,8.96095874 L7.15657039,8.6372011 C7.15657039,8.6372011 6.64578688,7.03288779 6.60374709,6.96917809 Z M13.0269521,15.5466297 L13.699791,15.5466297 L13.261968,15.9989452 L12.3367767,15.9989452 L13.0269521,15.5466297 Z M11.7678706,16.7342606 L12.3223368,16.2351738 L13.1077983,16.2351738 L12.6676839,16.7342606 L11.7678706,16.7342606 Z M10.7510681,16.0307287 L11.1496353,15.6820597 L11.6780319,15.6820597 L11.2591019,16.0307287 L10.7510681,16.0307287 Z M11.8246791,17.9146352 L11.3881531,18.7471549 L10.288386,18.7471549 L10.8245214,17.9146352 L11.8246791,17.9146352 Z M2.93056488,17.3924456 L5.51731783,15.1637821 C5.51731783,15.1637821 5.29615784,13.7483303 5.11133576,12.6048028 C4.92651367,11.4612752 4.42310588,11.1491821 4.42310588,11.1491821 L2.93056488,17.3924456 Z M7.6605835,3.24689259 C7.6605835,3.24689259 8.36222056,3.15638272 8.7130391,3.11112779 C9.44707215,3.0164389 10.9151382,2.82706113 10.9151382,2.82706113 L10.9800746,3.53475247 C10.9800746,3.53475242 10.0550563,3.29771 9.48519897,3.24689259 C8.9153417,3.19607517 7.6605835,3.24689259 7.6605835,3.24689259 Z M0.662160238,12.1020087 L0.966824849,13.3412032 L3.55014038,9.95786625 L0.662160238,12.1020087 Z M8.80864207,16.1396877 L8.66035207,17.4261732 L9.18446859,17.4759507 L9.26440684,16.1925396 L8.80864207,16.1396877 Z M3.77642314,10.1586041 L1.53062948,15.4038298 L1.10837047,13.8480211 L3.77642314,10.1586041 Z M7.099027,15.8546309 L7.55773163,15.9564466 L7.23962148,17.2434294 L6.58264923,17.0874055 L7.099027,15.8546309 Z M10.8288447,1.56982733 L10.9096909,2.49493946 C10.9096909,2.49493946 7.66430155,2.95093989 7.66430155,2.95093989 L10.8288447,1.56982733 Z M11.5252889,17.0014506 L11.080073,17.5197152 L12.1100616,17.5197152 L12.4915085,17.0014506 L11.5252889,17.0014506 Z M10.0185242,16.771742 L10.6961187,16.771742 L11.06987,16.3123249 L10.4435575,16.3123249 C10.4435575,16.3123249 10.0185242,16.771742 10.0185242,16.771742 Z M10.4244843,17.1801789 L10.0579961,17.6905763 L9.28693136,17.6905763 L9.67270152,17.1801789 L10.4244843,17.1801789 Z M6.18987529,15.5874778 L6.65324911,15.7344143 L6.0302798,16.9388866 L5.40731049,16.6696085 L6.18987529,15.5874778 Z" ></path>
            </g>
            <rect  fill="#333333" x="4" y="34" width="20" height="2"></rect>
            <rect  fill="#333333" x="11" y="30" width="5" height="2"></rect>
            <rect  fill="#333333" x="4" y="30" width="5" height="2"></rect>
            <rect  fill="#333333" x="6" y="23" width="11" height="2"></rect>
            <rect  fill="#333333" x="19" y="23" width="17" height="2"></rect>
            <rect  fill="#333333" x="38" y="23" width="15" height="2"></rect>
            <rect  fill="#333333" x="48" y="18" width="6" height="2"></rect>
            <path d="M0,4.00002553 C0,1.79087243 1.79568082,0 4.0065556,0 L55.9934444,0 C58.206204,0 60,1.79642476 60,4.00002553 L60,35.9999745 C60,38.2091276 58.2043192,40 55.9934444,40 L4.0065556,40 C1.79379604,40 0,38.2035752 0,35.9999745 L0,4.00002553 Z M2,3.99970728 C2,2.89529944 2.90230818,2 3.99306965,2 L56.0069304,2 C57.1076723,2 58,2.88989258 58,3.99970728 L58,36.0002927 C58,37.1047006 57.0976918,38 56.0069304,38 L3.99306965,38 C2.89232768,38 2,37.1101074 2,36.0002927 L2,3.99970728 Z"  fill="#D9D9D9"></path>
            <path d="M50.71875,27.4375 C55.5339827,27.4375 59.4375,23.5339827 59.4375,18.71875 C59.4375,13.9035173 55.5339827,10 50.71875,10 C45.9035173,10 42,13.9035173 42,18.71875 C42,23.5339827 45.9035173,27.4375 50.71875,27.4375 Z M50.78125,25.5625 C54.526431,25.5625 57.5625,22.526431 57.5625,18.78125 C57.5625,15.036069 54.526431,12 50.78125,12 C47.036069,12 44,15.036069 44,18.78125 C44,22.526431 47.036069,25.5625 50.78125,25.5625 Z"  fill="#FF49D6"></path>
            <path d="M10.5588333,7 L11.4678333,5.041 L11.7738333,5.041 L12.6828333,7 L12.3138333,7 L12.0768333,6.472 L11.1438333,6.472 L10.9098333,7 L10.5588333,7 Z M11.6028333,5.443 L11.2638333,6.202 L11.9568333,6.202 L11.6208333,5.443 L11.6028333,5.443 Z M15.4701666,7 L15.1341666,7 L15.1341666,5.668 L15.1191666,5.668 L14.4681666,6.766 L14.4141666,6.766 L13.7631666,5.668 L13.7481666,5.668 L13.7481666,7 L13.4271666,7 L13.4271666,5.041 L13.7721666,5.041 L14.4531666,6.196 L14.4591666,6.196 L15.1401666,5.041 L15.4701666,5.041 L15.4701666,7 Z M17.5704999,5.827 L17.5704999,6.127 L16.8174999,6.127 L16.8174999,6.7 L18.1434999,6.7 L18.1434999,7 L16.4814999,7 L16.4814999,5.041 L18.0714999,5.041 L18.0714999,5.341 L16.8174999,5.341 L16.8174999,5.827 L17.5704999,5.827 Z M19.2928333,7 L18.9568333,7 L18.9568333,5.041 L20.0368333,5.041 C20.2868345,5.041 20.4758326,5.10999931 20.6038333,5.248 C20.7078338,5.35800055 20.7598333,5.48899924 20.7598333,5.641 C20.7598333,5.77100065 20.7208337,5.88449951 20.6428333,5.9815 C20.5648329,6.07850048 20.4598339,6.15199975 20.3278333,6.202 L20.7958333,7 L20.4088333,7 L19.9888333,6.247 L19.2928333,6.247 L19.2928333,7 Z M20.0368333,5.341 L19.2928333,5.341 L19.2928333,5.947 L20.0968333,5.947 C20.1848337,5.947 20.261333,5.9170003 20.3263333,5.857 C20.3913336,5.7969997 20.4238333,5.72500042 20.4238333,5.641 C20.4238333,5.56899964 20.3968336,5.50400029 20.3428333,5.446 C20.2748329,5.37599965 20.172834,5.341 20.0368333,5.341 L20.0368333,5.341 Z M21.9751666,7 L21.6391666,7 L21.6391666,5.041 L21.9751666,5.041 L21.9751666,7 Z M24.6245,6.43 L24.8495,6.652 C24.5774986,6.92400136 24.2555018,7.06 23.8835,7.06 C23.5674984,7.06 23.310001,6.960001 23.111,6.76 C22.911999,6.559999 22.8125,6.31300147 22.8125,6.019 C22.8125,5.72899855 22.911499,5.483501 23.1095,5.2825 C23.307501,5.08149899 23.5604984,4.981 23.8685,4.981 C24.0425008,4.981 24.2109992,5.01249968 24.374,5.0755 C24.5370008,5.13850031 24.6744994,5.22199948 24.7865,5.326 L24.5585,5.551 C24.4724995,5.46899959 24.3670006,5.40350024 24.242,5.3545 C24.1169993,5.30549975 23.9945006,5.281 23.8745,5.281 C23.6644989,5.281 23.4940006,5.35249928 23.363,5.4955 C23.2319993,5.63850071 23.1665,5.81399896 23.1665,6.022 C23.1665,6.23000104 23.2334993,6.40499929 23.3675,6.547 C23.5015006,6.68900071 23.6754989,6.76 23.8895,6.76 C24.0335007,6.76 24.1694993,6.7295003 24.2975,6.6685 C24.4255006,6.60749969 24.5344995,6.52800049 24.6245,6.43 L24.6245,6.43 Z M25.3658333,7 L26.2748333,5.041 L26.5808333,5.041 L27.4898333,7 L27.1208333,7 L26.8838333,6.472 L25.9508333,6.472 L25.7168333,7 L25.3658333,7 Z M26.4098333,5.443 L26.0708333,6.202 L26.7638333,6.202 L26.4278333,5.443 L26.4098333,5.443 Z M29.6651667,5.041 L30.0011667,5.041 L30.0011667,7 L29.7041667,7 L28.5731667,5.641 L28.5701667,5.641 L28.5701667,7 L28.2341667,7 L28.2341667,5.041 L28.5311667,5.041 L29.6621667,6.4 L29.6651667,6.4 L29.6651667,5.041 Z M33.1098333,5.827 L33.1098333,6.127 L32.3568333,6.127 L32.3568333,6.7 L33.6828333,6.7 L33.6828333,7 L32.0208333,7 L32.0208333,5.041 L33.6108333,5.041 L33.6108333,5.341 L32.3568333,5.341 L32.3568333,5.827 L33.1098333,5.827 Z M35.8311667,5.041 L36.2391667,5.041 L35.4681667,5.977 L36.2781667,7 L35.8491667,7 L35.2491667,6.214 L34.6251667,7 L34.2171667,7 L35.0481667,5.992 L34.2981667,5.041 L34.7271667,5.041 L35.2671667,5.755 L35.8311667,5.041 Z M37.3645,7 L37.0285,7 L37.0285,5.041 L38.1085,5.041 C38.3585013,5.041 38.5474994,5.10999931 38.6755,5.248 C38.7795005,5.36000056 38.8315,5.49099925 38.8315,5.641 C38.8315,5.80700083 38.7715006,5.94799942 38.6515,6.064 C38.5234994,6.18600061 38.3425012,6.247 38.1085,6.247 L37.3645,6.247 L37.3645,7 Z M38.1085,5.341 L37.3645,5.341 L37.3645,5.947 L38.1085,5.947 C38.2385007,5.947 38.3374997,5.91500032 38.4055,5.851 C38.4655003,5.79499972 38.4955,5.72600041 38.4955,5.644 C38.4955,5.56999963 38.4685003,5.50400029 38.4145,5.446 C38.3484997,5.37599965 38.2465007,5.341 38.1085,5.341 L38.1085,5.341 Z M39.9478334,7 L39.6118334,7 L39.6118334,5.041 L40.6918334,5.041 C40.9418346,5.041 41.1308327,5.10999931 41.2588334,5.248 C41.3628339,5.35800055 41.4148334,5.48899924 41.4148334,5.641 C41.4148334,5.77100065 41.3758338,5.88449951 41.2978334,5.9815 C41.219833,6.07850048 41.114834,6.15199975 40.9828334,6.202 L41.4508334,7 L41.0638334,7 L40.6438334,6.247 L39.9478334,6.247 L39.9478334,7 Z M40.6918334,5.341 L39.9478334,5.341 L39.9478334,5.947 L40.7518334,5.947 C40.8398338,5.947 40.916333,5.9170003 40.9813334,5.857 C41.0463337,5.7969997 41.0788334,5.72500042 41.0788334,5.641 C41.0788334,5.56899964 41.0518336,5.50400029 40.9978334,5.446 C40.929833,5.37599965 40.8278341,5.341 40.6918334,5.341 L40.6918334,5.341 Z M43.3831667,5.827 L43.3831667,6.127 L42.6301667,6.127 L42.6301667,6.7 L43.9561667,6.7 L43.9561667,7 L42.2941667,7 L42.2941667,5.041 L43.8841667,5.041 L43.8841667,5.341 L42.6301667,5.341 L42.6301667,5.827 L43.3831667,5.827 Z M46.3595001,5.266 L46.1555001,5.5 C46.0894997,5.4399997 45.9955007,5.38700023 45.8735001,5.341 C45.7514994,5.29499977 45.6085009,5.272 45.4445001,5.272 C45.3164994,5.272 45.2110005,5.29499977 45.1280001,5.341 C45.0449996,5.38700023 45.0035001,5.45799952 45.0035001,5.554 C45.0035001,5.60200024 45.0169999,5.64149984 45.0440001,5.6725 C45.0710002,5.70350015 45.1149998,5.72699992 45.1760001,5.743 C45.2370004,5.75900008 45.2909998,5.76999997 45.3380001,5.776 C45.3850003,5.78200003 45.4544996,5.78799997 45.5465001,5.794 C45.5665002,5.79600001 45.5815,5.797 45.5915001,5.797 C45.6615004,5.80100002 45.7154999,5.80499998 45.7535001,5.809 C45.7915002,5.81300002 45.8474997,5.82099994 45.9215001,5.833 C45.9955004,5.84500006 46.0539998,5.85849992 46.0970001,5.8735 C46.1400003,5.88850007 46.1899998,5.91149984 46.2470001,5.9425 C46.3040003,5.97350015 46.3479999,6.0089998 46.3790001,6.049 C46.4100002,6.0890002 46.4369999,6.1389997 46.4600001,6.199 C46.4830002,6.2590003 46.4945001,6.32699962 46.4945001,6.403 C46.4945001,6.62700112 46.4140009,6.79249946 46.2530001,6.8995 C46.0919993,7.00650053 45.8845013,7.06 45.6305001,7.06 C45.220498,7.06 44.8635016,6.92300137 44.5595001,6.649 L44.7635001,6.415 C45.0235014,6.65100118 45.3144984,6.769 45.6365001,6.769 C45.7905008,6.769 45.9159996,6.74200027 46.0130001,6.688 C46.1100005,6.63399973 46.1585001,6.55400053 46.1585001,6.448 C46.1585001,6.33399943 46.1125005,6.25550021 46.0205001,6.2125 C45.9284996,6.16949978 45.785501,6.14000008 45.5915001,6.124 C45.5194997,6.11999998 45.4640003,6.11600002 45.4250001,6.112 C45.3859999,6.10799998 45.3330004,6.10200004 45.2660001,6.094 C45.1989997,6.08599996 45.1460003,6.07650005 45.1070001,6.0655 C45.0679999,6.05449994 45.0220003,6.04000009 44.9690001,6.022 C44.9159998,6.00399991 44.8745002,5.98200013 44.8445001,5.956 C44.8144999,5.92999987 44.7840002,5.89950017 44.7530001,5.8645 C44.7219999,5.82949982 44.7000001,5.78850023 44.6870001,5.7415 C44.674,5.69449976 44.6675001,5.64200029 44.6675001,5.584 C44.6675001,5.47399945 44.6909998,5.37800041 44.7380001,5.296 C44.7850003,5.21399959 44.8484997,5.15100022 44.9285001,5.107 C45.0085005,5.06299978 45.0919996,5.0310001 45.1790001,5.011 C45.2660005,4.9909999 45.3584996,4.981 45.4565001,4.981 C45.644501,4.981 45.8184993,5.00999971 45.9785001,5.068 C46.1385009,5.12600029 46.2654996,5.19199963 46.3595001,5.266 L46.3595001,5.266 Z M48.9008334,5.266 L48.6968334,5.5 C48.6308331,5.4399997 48.536834,5.38700023 48.4148334,5.341 C48.2928328,5.29499977 48.1498342,5.272 47.9858334,5.272 C47.8578328,5.272 47.7523338,5.29499977 47.6693334,5.341 C47.586333,5.38700023 47.5448334,5.45799952 47.5448334,5.554 C47.5448334,5.60200024 47.5583333,5.64149984 47.5853334,5.6725 C47.6123335,5.70350015 47.6563331,5.72699992 47.7173334,5.743 C47.7783337,5.75900008 47.8323332,5.76999997 47.8793334,5.776 C47.9263336,5.78200003 47.9958329,5.78799997 48.0878334,5.794 C48.1078335,5.79600001 48.1228334,5.797 48.1328334,5.797 C48.2028338,5.80100002 48.2568332,5.80499998 48.2948334,5.809 C48.3328336,5.81300002 48.388833,5.82099994 48.4628334,5.833 C48.5368338,5.84500006 48.5953332,5.85849992 48.6383334,5.8735 C48.6813336,5.88850007 48.7313331,5.91149984 48.7883334,5.9425 C48.8453337,5.97350015 48.8893332,6.0089998 48.9203334,6.049 C48.9513336,6.0890002 48.9783333,6.1389997 49.0013334,6.199 C49.0243335,6.2590003 49.0358334,6.32699962 49.0358334,6.403 C49.0358334,6.62700112 48.9553342,6.79249946 48.7943334,6.8995 C48.6333326,7.00650053 48.4258347,7.06 48.1718334,7.06 C47.7618314,7.06 47.4048349,6.92300137 47.1008334,6.649 L47.3048334,6.415 C47.5648347,6.65100118 47.8558318,6.769 48.1778334,6.769 C48.3318342,6.769 48.4573329,6.74200027 48.5543334,6.688 C48.6513339,6.63399973 48.6998334,6.55400053 48.6998334,6.448 C48.6998334,6.33399943 48.6538339,6.25550021 48.5618334,6.2125 C48.4698329,6.16949978 48.3268344,6.14000008 48.1328334,6.124 C48.060833,6.11999998 48.0053336,6.11600002 47.9663334,6.112 C47.9273332,6.10799998 47.8743337,6.10200004 47.8073334,6.094 C47.7403331,6.08599996 47.6873336,6.07650005 47.6483334,6.0655 C47.6093332,6.05449994 47.5633337,6.04000009 47.5103334,6.022 C47.4573331,6.00399991 47.4158336,5.98200013 47.3858334,5.956 C47.3558333,5.92999987 47.3253336,5.89950017 47.2943334,5.8645 C47.2633332,5.82949982 47.2413335,5.78850023 47.2283334,5.7415 C47.2153333,5.69449976 47.2088334,5.64200029 47.2088334,5.584 C47.2088334,5.47399945 47.2323332,5.37800041 47.2793334,5.296 C47.3263336,5.21399959 47.389833,5.15100022 47.4698334,5.107 C47.5498338,5.06299978 47.633333,5.0310001 47.7203334,5.011 C47.8073338,4.9909999 47.8998329,4.981 47.9978334,4.981 C48.1858343,4.981 48.3598326,5.00999971 48.5198334,5.068 C48.6798342,5.12600029 48.8068329,5.19199963 48.9008334,5.266 L48.9008334,5.266 Z"  fill="#999999"></path>
        </g>
        <g  transform="translate(600.000000, 0.000000)">
            <path d="M60,35 C60,37.75 57.75,40 55,40 L5,40 C2.25,40 0,37.75 0,35 L0,5 C0,2.25 2.25,0 5,0 L55,0 C57.75,0 60,2.25 60,5 L60,35 L60,35 Z"  fill="#FFFFFF"></path>
            <path d="M0,4.00002553 C0,1.79087243 1.79568082,0 4.0065556,0 L55.9934444,0 C58.206204,0 60,1.79642476 60,4.00002553 L60,35.9999745 C60,38.2091276 58.2043192,40 55.9934444,40 L4.0065556,40 C1.79379604,40 0,38.2035752 0,35.9999745 L0,4.00002553 Z M2,3.99970728 C2,2.89529944 2.90230818,2 3.99306965,2 L56.0069304,2 C57.1076723,2 58,2.88989258 58,3.99970728 L58,36.0002927 C58,37.1047006 57.0976918,38 56.0069304,38 L3.99306965,38 C2.89232768,38 2,37.1101074 2,36.0002927 L2,3.99970728 Z"  fill="#D9D9D9"></path>
            <g  transform="translate(0.000000, 7.000000)">
                <rect  fill="#333333" x="0" y="0" width="59" height="8"></rect>
                <rect  fill="#D9D9D9" x="4" y="12" width="36" height="8"></rect>
                <rect  fill="#333333" x="8" y="15" width="29" height="2"></rect>
                <rect  fill="#D9D9D9" x="46" y="12" width="8" height="8"></rect>
                <rect  fill="#333333" x="48" y="15" width="4" height="2"></rect>
                <path d="M49.71875,24.4375 C54.5339827,24.4375 58.4375,20.5339827 58.4375,15.71875 C58.4375,10.9035173 54.5339827,7 49.71875,7 C44.9035173,7 41,10.9035173 41,15.71875 C41,20.5339827 44.9035173,24.4375 49.71875,24.4375 Z M49.78125,22.5625 C53.526431,22.5625 56.5625,19.526431 56.5625,15.78125 C56.5625,12.036069 53.526431,9 49.78125,9 C46.036069,9 43,12.036069 43,15.78125 C43,19.526431 46.036069,22.5625 49.78125,22.5625 Z"  fill="#FF49D6"></path>
            </g>
        </g>
        <g  transform="translate(540.000000, 0.000000)">
            <path d="M60,35 C60,37.75 57.75,40 55,40 L5,40 C2.25,40 0,37.75 0,35 L0,5 C0,2.25 2.25,0 5,0 L55,0 C57.75,0 60,2.25 60,5 L60,35 L60,35 Z"  fill="#2D2583"></path>
            <path d="M11,3 L46,7 L48,3 L11,3 Z"  fill="#EB5292"></path>
            <path d="M10,1 L48,3 L49,1 L10,1 Z"  fill="#EB5292"></path>
            <path d="M13,7 L44,11 L46,7 L13,7 Z"  fill="#EB5292"></path>
            <path d="M15,11 L42,15 L44,11 L15,11 Z"  fill="#EB5292"></path>
            <path d="M17,15 L40,19 L42,15 L17,15 Z"  fill="#EB5292"></path>
            <path d="M19,19 L38,23 L40,19 L19,19 Z"  fill="#EB5292"></path>
            <path d="M22,23 L36,27 L38,23 L22,23 Z"  fill="#EB5292"></path>
            <path d="M24,27 L34,31 L36,27 L24,27 Z"  fill="#EB5292"></path>
            <path d="M26,31 L32,35 L34,31 L26,31 Z"  fill="#EB5292"></path>
            <path d="M28,35 L31,37 L32,35 L28,35 Z"  fill="#EB5292"></path>
            <rect  fill="#EB5292" x="1" y="3" width="58" height="1"></rect>
            <rect  fill="#EB5292" x="1" y="7" width="58" height="1"></rect>
            <rect  fill="#EB5292" x="1" y="11" width="58" height="1"></rect>
            <rect  fill="#EB5292" x="1" y="15" width="58" height="1"></rect>
            <rect  fill="#EB5292" x="1" y="19" width="58" height="1"></rect>
            <rect  fill="#EB5292" x="1" y="23" width="58" height="1"></rect>
            <rect  fill="#EB5292" x="1" y="27" width="58" height="1"></rect>
            <rect  fill="#EB5292" x="1" y="31" width="58" height="1"></rect>
            <rect  fill="#EB5292" x="1" y="35" width="58" height="1"></rect>
            <path d="M0,4.00002553 C0,1.79087243 1.79568082,0 4.0065556,0 L55.9934444,0 C58.206204,0 60,1.79642476 60,4.00002553 L60,35.9999745 C60,38.2091276 58.2043192,40 55.9934444,40 L4.0065556,40 C1.79379604,40 0,38.2035752 0,35.9999745 L0,4.00002553 Z M2,3.99970728 C2,2.89529944 2.90230818,2 3.99306965,2 L56.0069304,2 C57.1076723,2 58,2.88989258 58,3.99970728 L58,36.0002927 C58,37.1047006 57.0976918,38 56.0069304,38 L3.99306965,38 C2.89232768,38 2,37.1101074 2,36.0002927 L2,3.99970728 Z"  fill="#2D2583"></path>
        </g>
        <g  transform="translate(480.000000, 0.000000)">
            <path d="M60,35 C60,37.75 57.75,40 55,40 L5,40 C2.25,40 0,37.75 0,35 L0,5 C0,2.25 2.25,0 5,0 L55,0 C57.75,0 60,2.25 60,5 L60,35 L60,35 Z"  fill="#FFFFFF"></path>
            <path d="M17.0058587,11 C15.8980535,11 14.8070717,11.8681774 14.5643154,12.9605808 L11.4356846,27.0394192 C11.1950626,28.1222181 11.8970601,29 13.0058587,29 L22.9941413,29 C24.1019465,29 25.1929283,28.1318226 25.4356846,27.0394192 L28.5643154,12.9605808 C28.8049374,11.8777819 28.1029399,11 26.9941413,11 L17.0058587,11 Z"  fill="#DD0228"></path>
            <path d="M27.0058587,11 C25.8980535,11 24.8070717,11.8681774 24.5643154,12.9605808 L21.4356846,27.0394192 C21.1950626,28.1222181 21.8970601,29 23.0058587,29 L32.9941413,29 C34.1019465,29 35.1929283,28.1318226 35.4356846,27.0394192 L38.5643154,12.9605808 C38.8049374,11.8777819 38.1029399,11 36.9941413,11 L27.0058587,11 Z"  fill="#024381"></path>
            <path d="M37.0027601,11 C35.8966663,11 34.8070717,11.8681774 34.5643154,12.9605808 L31.4356846,27.0394192 C31.1950626,28.1222181 31.8935426,29 33.0027601,29 L41.9972399,29 C43.1033337,29 44.1929283,28.1318226 44.4356846,27.0394192 L47.5643154,12.9605808 C47.8049374,11.8777819 47.1064574,11 45.9972399,11 L37.0027601,11 Z"  fill="#01798A"></path>
            <path d="M0,4.00002553 C0,1.79087243 1.79568082,0 4.0065556,0 L55.9934444,0 C58.206204,0 60,1.79642476 60,4.00002553 L60,35.9999745 C60,38.2091276 58.2043192,40 55.9934444,40 L4.0065556,40 C1.79379604,40 0,38.2035752 0,35.9999745 L0,4.00002553 Z M2,3.99970728 C2,2.89529944 2.90230818,2 3.99306965,2 L56.0069304,2 C57.1076723,2 58,2.88989258 58,3.99970728 L58,36.0002927 C58,37.1047006 57.0976918,38 56.0069304,38 L3.99306965,38 C2.89232768,38 2,37.1101074 2,36.0002927 L2,3.99970728 Z"  fill="#D9D9D9"></path>
        </g>
        <g  transform="translate(420.000000, 0.000000)">
            <path d="M60,35 C60,37.75 57.75,40 55,40 L5,40 C2.25,40 0,37.75 0,35 L0,5 C0,2.25 2.25,0 5,0 L55,0 C57.75,0 60,2.25 60,5 L60,35 L60,35 Z"  fill="#FFFFFF"></path>
            <circle  fill="#007DD8" cx="22.5" cy="19" r="10"></circle>
            <path d="M37.449,9 C34.459,9 31.782,10.32 29.949,12.4 C29.516,12.892 29.137,13.43 28.805,14 L31.093,14 C31.457,14.625 31.74,15.299 31.964,16 L27.92,16 C27.717,16.643 27.57,17.309 27.501,18 L32.38,18 C32.414,18.33 32.448,18.66 32.448,19 C32.448,19.338 32.428,19.671 32.395,20 L27.5,20 C27.569,20.691 27.716,21.357 27.919,22 L31.975,22 C31.752,22.704 31.453,23.372 31.089,24 L28.804,24 C29.135,24.568 29.515,25.107 29.948,25.599 C31.781,27.68 34.458,29 37.448,29 C42.97,29 47.448,24.521 47.448,19 C47.449,13.477 42.971,9 37.449,9 L37.449,9 Z"  fill="#E12D01"></path>
            <path d="M0,4.00002553 C0,1.79087243 1.79568082,0 4.0065556,0 L55.9934444,0 C58.206204,0 60,1.79642476 60,4.00002553 L60,35.9999745 C60,38.2091276 58.2043192,40 55.9934444,40 L4.0065556,40 C1.79379604,40 0,38.2035752 0,35.9999745 L0,4.00002553 Z M2,3.99970728 C2,2.89529944 2.90230818,2 3.99306965,2 L56.0069304,2 C57.1076723,2 58,2.88989258 58,3.99970728 L58,36.0002927 C58,37.1047006 57.0976918,38 56.0069304,38 L3.99306965,38 C2.89232768,38 2,37.1101074 2,36.0002927 L2,3.99970728 Z"  fill="#D9D9D9"></path>
        </g>
        <g  transform="translate(360.000000, 0.000000)">
            <path d="M60,35 C60,37.75 57.75,40 55,40 L5,40 C2.25,40 0,37.75 0,35 L0,5 C0,2.25 2.25,0 5,0 L55,0 C57.75,0 60,2.25 60,5 L60,35 L60,35 Z"  fill="#FFFFFF"></path>
            <g  transform="translate(12.000000, 15.000000)" fill="#22337B">
                <path d="M24.8732422,10.8038292 L27.7605713,10.8118019 L28.3642273,9.22099304 L32.058667,9.24184799 L32.4351563,10.806263 L34.9980774,10.8038292 L32.7053467,0.229362488 L30.171051,0.231796265 C30.171051,0.231796265 29.5321899,0.191051483 29.2206421,0.806419373 C28.8697449,1.5263977 24.8732422,10.8038292 24.8732422,10.8038292 Z M30.7142944,3.08485413 L31.6272766,7.0477562 L29.2742188,7.03701401 L30.7142944,3.08485413 Z" ></path>
                <path d="M17.3526611,8.25695781 L16.9832886,10.4527776 C16.9832886,10.4527776 18.5021057,11.0206871 20.1924622,10.9700394 C21.8828186,10.9193916 24.9354246,10.6163896 24.9354246,7.66509995 C24.9354246,4.30581638 20.8579102,5.14569113 20.8579102,3.26623544 C20.8579102,1.38677975 25.0729797,2.71659859 25.0729797,2.71659859 C25.0729797,2.71659859 25.3449522,0.852161407 25.4102781,0.530273434 C25.0245325,0.36479219 25.0932594,0.353229942 24.068115,0.181213386 C21.6786432,-0.219733757 18.1134399,0.400825646 18.1134399,3.43863296 C18.11344,6.47644028 22.1269529,5.93170151 22.1269529,7.5602415 C22.1269529,9.70123276 17.3526611,8.25695781 17.3526611,8.25695781 Z" ></path>
                <path d="M14.1264221,0.186729431 L16.9278748,0.186729431 L15.1703552,10.7878418 L12.3981689,10.7878418 L14.1264221,0.186729431 Z" ></path>
                <path d="M2.97264645,1.45028093 L5.51228638,10.8288383 L8.47058105,10.8288383 L12.9104797,0.19121933 L9.99063721,0.194324493 L7.17021484,7.4634285 L6.78128114,5.64262246 C6.78721694,5.65322908 6.79026472,5.658741 6.79026472,5.658741 L5.93799438,1.45862961 C5.93799438,1.45862961 5.78363037,0.731643677 5.47964478,0.465270996 C5.17565918,0.198898315 4.76225586,0.201961517 4.76225586,0.201961517 C4.76225586,0.201961517 0.0837065835,0.148921966 0.0640869141,0.148921966 C-0.147784419,0.148921966 -0.164233401,0.405727386 0.0640869154,0.405727386 C0.829912401,0.508616758 1.85048523,0.853680198 2.97264645,1.45028093 Z" ></path>
            </g>
            <path d="M0,4.00002553 C0,1.79087243 1.79568082,0 4.0065556,0 L55.9934444,0 C58.206204,0 60,1.79642476 60,4.00002553 L60,35.9999745 C60,38.2091276 58.2043192,40 55.9934444,40 L4.0065556,40 C1.79379604,40 0,38.2035752 0,35.9999745 L0,4.00002553 Z M2,3.99970728 C2,2.89529944 2.90230818,2 3.99306965,2 L56.0069304,2 C57.1076723,2 58,2.88989258 58,3.99970728 L58,36.0002927 C58,37.1047006 57.0976918,38 56.0069304,38 L3.99306965,38 C2.89232768,38 2,37.1101074 2,36.0002927 L2,3.99970728 Z"  fill="#D9D9D9"></path>
        </g>
        <g  transform="translate(300.000000, 0.000000)">
            <path d="M60,35 C60,37.75 57.75,40 55,40 L5,40 C2.25,40 0,37.75 0,35 L0,5 C0,2.25 2.25,0 5,0 L55,0 C57.75,0 60,2.25 60,5 L60,35 L60,35 Z"  fill="#FFFFFF"></path>
            <g  transform="translate(17.000000, 10.000000)">
                <path d="M9.75,0.00306397962 C4.34267308,0.135744181 0,4.56072927 0,10 C0,15.4392707 4.34267308,19.8642558 9.75,19.996936 L9.75,20 L16.917,20 C21.917,20 26.916,15.521 26.916,10 C26.916,4.478 21.917,0 16.917,0 L9.75,0 L9.75,0.00306397962 Z"  fill="#0079BE"></path>
                <circle  fill="#FFFFFF" cx="9.94126316" cy="9.94126316" r="8.94126316"></circle>
                <path d="M12,15.5637714 C14.2878625,14.7309151 15.9216842,12.5366783 15.9216842,9.96084211 C15.9216842,7.38500587 14.2878625,5.19076915 12,4.35791285 L12,15.5637714 Z M8,4.33002499 C5.67119779,5.14090595 4,7.35570945 4,9.96084211 C4,12.5659748 5.67119779,14.7807783 8,15.5916592 L8,4.33002499 Z"  fill="#0079BE"></path>
            </g>
            <path d="M0,4.00002553 C0,1.79087243 1.79568082,0 4.0065556,0 L55.9934444,0 C58.206204,0 60,1.79642476 60,4.00002553 L60,35.9999745 C60,38.2091276 58.2043192,40 55.9934444,40 L4.0065556,40 C1.79379604,40 0,38.2035752 0,35.9999745 L0,4.00002553 Z M2,3.99970728 C2,2.89529944 2.90230818,2 3.99306965,2 L56.0069304,2 C57.1076723,2 58,2.88989258 58,3.99970728 L58,36.0002927 C58,37.1047006 57.0976918,38 56.0069304,38 L3.99306965,38 C2.89232768,38 2,37.1101074 2,36.0002927 L2,3.99970728 Z"  fill="#D9D9D9"></path>
        </g>
        <g  transform="translate(240.000000, 0.000000)">
            <path d="M60,35 C60,37.75 57.75,40 55,40 L5,40 C2.25,40 0,37.75 0,35 L0,5 C0,2.25 2.25,0 5,0 L55,0 C57.75,0 60,2.25 60,5 L60,35 L60,35 Z"  fill="#FFFFFF"></path>
            <g  transform="translate(10.000000, 17.000000)">
                <path d="M4.885,2.943 C4.885,3.945 4.6,4.712 4.031,5.245 C3.46,5.777 2.636,6.044 1.559,6.044 L-0.165,6.044 L-0.165,-0.041 L1.745,-0.041 C2.739,-0.041 3.51,0.222 4.058,0.746 C4.61,1.27 4.885,2.003 4.885,2.943 L4.885,2.943 Z M3.545,2.977 C3.545,1.67 2.967,1.017 1.815,1.017 L1.127,1.017 L1.127,4.978 L1.681,4.978 C2.924,4.979 3.545,4.311 3.545,2.977 L3.545,2.977 Z"  fill="#666666"></path>
                <path d="M5.976,6.044 L5.976,-0.041 L7.266,-0.041 L7.266,6.044 L5.976,6.044 L5.976,6.044 Z"  fill="#666666"></path>
                <path d="M12.391,4.354 C12.391,4.905 12.194,5.336 11.797,5.653 C11.401,5.969 10.852,6.129 10.147,6.129 C9.499,6.129 8.923,6.006 8.423,5.763 L8.423,4.564 C8.834,4.749 9.182,4.876 9.466,4.953 C9.75,5.027 10.011,5.064 10.247,5.064 C10.529,5.064 10.747,5.009 10.898,4.902 C11.046,4.795 11.125,4.632 11.125,4.42 C11.125,4.301 11.092,4.195 11.024,4.102 C10.959,4.008 10.86,3.918 10.73,3.833 C10.601,3.748 10.338,3.609 9.942,3.421 C9.571,3.246 9.293,3.077 9.105,2.917 C8.918,2.757 8.771,2.57 8.66,2.355 C8.549,2.14 8.494,1.89 8.494,1.605 C8.494,1.067 8.676,0.644 9.041,0.336 C9.407,0.027 9.91,-0.126 10.555,-0.126 C10.871,-0.126 11.173,-0.089 11.46,-0.014 C11.747,0.06 12.048,0.167 12.361,0.302 L11.945,1.305 C11.62,1.172 11.35,1.077 11.138,1.026 C10.925,0.974 10.716,0.947 10.512,0.947 C10.267,0.947 10.079,1.003 9.95,1.118 C9.819,1.232 9.754,1.38 9.754,1.563 C9.754,1.677 9.78,1.775 9.833,1.861 C9.886,1.946 9.97,2.027 10.085,2.106 C10.2,2.185 10.474,2.327 10.903,2.533 C11.471,2.805 11.861,3.078 12.073,3.351 C12.285,3.622 12.391,3.957 12.391,4.354 L12.391,4.354 Z"  fill="#666666"></path>
                <path d="M16.078,0.945 C15.592,0.945 15.217,1.129 14.95,1.492 C14.682,1.857 14.551,2.367 14.551,3.018 C14.551,4.374 15.06,5.053 16.078,5.053 C16.506,5.053 17.021,4.949 17.631,4.733 L17.631,5.815 C17.131,6.024 16.573,6.127 15.957,6.127 C15.072,6.127 14.395,5.857 13.926,5.32 C13.457,4.784 13.223,4.013 13.223,3.008 C13.223,2.375 13.339,1.821 13.57,1.346 C13.799,0.868 14.131,0.505 14.562,0.251 C14.995,-0.003 15.5,-0.13 16.08,-0.13 C16.671,-0.13 17.266,0.013 17.861,0.299 L17.445,1.348 C17.216,1.24 16.989,1.146 16.757,1.065 C16.526,0.984 16.3,0.945 16.078,0.945 L16.078,0.945 Z"  fill="#666666"></path>
                <path d="M27.959,-0.041 L29.262,-0.041 L27.195,6.044 L25.788,6.044 L23.724,-0.041 L25.028,-0.041 L26.173,3.58 C26.236,3.795 26.304,4.042 26.371,4.328 C26.437,4.613 26.48,4.808 26.498,4.92 C26.528,4.665 26.632,4.221 26.81,3.58 L27.959,-0.041 L27.959,-0.041 Z"  fill="#666666"></path>
                <path d="M33.532,6.044 L30.027,6.044 L30.027,-0.041 L33.532,-0.041 L33.532,1.017 L31.317,1.017 L31.317,2.353 L33.379,2.353 L33.379,3.41 L31.317,3.41 L31.317,4.978 L33.532,4.978 L33.532,6.044 L33.532,6.044 Z"  fill="#666666"></path>
                <path d="M36.092,3.709 L36.092,6.044 L34.802,6.044 L34.802,-0.041 L36.575,-0.041 C37.402,-0.041 38.013,0.109 38.411,0.411 C38.807,0.712 39.006,1.168 39.006,1.782 C39.006,2.139 38.907,2.459 38.711,2.737 C38.514,3.016 38.235,3.235 37.875,3.393 C38.79,4.759 39.386,5.644 39.664,6.043 L38.232,6.043 L36.779,3.708 L36.092,3.709 L36.092,3.709 Z M36.092,2.66 L36.509,2.66 C36.916,2.66 37.218,2.592 37.412,2.457 C37.605,2.32 37.703,2.106 37.703,1.815 C37.703,1.526 37.603,1.322 37.405,1.199 C37.207,1.076 36.9,1.016 36.484,1.016 L36.09,1.016 L36.092,2.66 L36.092,2.66 Z"  fill="#666666"></path>
                <circle  fill="#FF6600" cx="21.043" cy="3.043" r="3.043"></circle>
            </g>
            <path d="M59.914,27.5 L59.914,35 C59.914,35.688 59.773,36.344 59.519,36.941 C59.264,37.538 58.898,38.078 58.445,38.531 C57.992,38.984 57.453,39.35 56.855,39.605 C56.256,39.859 55.601,40 54.914,40 L32.457,40 L10,40 L59.914,27.5 L59.914,27.5 Z"  fill="#FF6600"></path>
            <path d="M0,4.00002553 C0,1.79087243 1.79568082,0 4.0065556,0 L55.9934444,0 C58.206204,0 60,1.79642476 60,4.00002553 L60,35.9999745 C60,38.2091276 58.2043192,40 55.9934444,40 L4.0065556,40 C1.79379604,40 0,38.2035752 0,35.9999745 L0,4.00002553 Z M2,3.99970728 C2,2.89529944 2.90230818,2 3.99306965,2 L56.0069304,2 C57.1076723,2 58,2.88989258 58,3.99970728 L58,36.0002927 C58,37.1047006 57.0976918,38 56.0069304,38 L3.99306965,38 C2.89232768,38 2,37.1101074 2,36.0002927 L2,3.99970728 Z"  fill="#D9D9D9"></path>
        </g>
        <g  transform="translate(180.000000, 0.000000)">
            <path d="M60,35 C60,37.75 57.75,40 55,40 L5,40 C2.25,40 0,37.75 0,35 L0,5 C0,2.25 2.25,0 5,0 L55,0 C57.75,0 60,2.25 60,5 L60,35 L60,35 Z"  fill="#FFFFFF"></path>
            <g  transform="translate(10.000000, 10.000000)">
                <path d="M7.75,20 L-0.25,20 L-0.25,5 C-0.25,2.238 2.988,0 5.75,0 L11.75,0 L11.75,15 C11.75,17.762 10.512,20 7.75,20 L7.75,20 Z"  fill="#0563AF"></path>
                <path d="M21.75,20 L13.75,20 L13.75,5 C13.75,2.238 16.988,0 19.75,0 L25.75,0 L25.75,15 C25.75,17.762 24.512,20 21.75,20 L21.75,20 Z"  fill="#DC0438"></path>
                <path d="M35.75,20 L27.75,20 L27.75,5 C27.75,2.238 30.988,0 33.75,0 L39.75,0 L39.75,15 C39.75,17.762 38.512,20 35.75,20 L35.75,20 Z"  fill="#4DAB33"></path>
            </g>
            <path d="M0,4.00002553 C0,1.79087243 1.79568082,0 4.0065556,0 L55.9934444,0 C58.206204,0 60,1.79642476 60,4.00002553 L60,35.9999745 C60,38.2091276 58.2043192,40 55.9934444,40 L4.0065556,40 C1.79379604,40 0,38.2035752 0,35.9999745 L0,4.00002553 Z M2,3.99970728 C2,2.89529944 2.90230818,2 3.99306965,2 L56.0069304,2 C57.1076723,2 58,2.88989258 58,3.99970728 L58,36.0002927 C58,37.1047006 57.0976918,38 56.0069304,38 L3.99306965,38 C2.89232768,38 2,37.1101074 2,36.0002927 L2,3.99970728 Z"  fill="#D9D9D9"></path>
        </g>
        <g  transform="translate(120.000000, 0.000000)">
            <path d="M55,40 L5,40 C2.25,40 0,37.75 0,35 L0,5 C0,2.25 2.25,0 5,0 L55,0 C57.75,0 60,2.25 60,5 L60,35 C60,37.75 57.75,40 55,40 Z"  fill="#D7B655"></path>
            <path d="M30.5,35 C37.4035594,35 43,28.5081289 43,20.5 C43,12.4918711 37.4035594,6 30.5,6 C27.9465343,6 25.571894,6.88814486 23.5931288,8.41265674 C20.2220969,11.0098209 18,15.4538913 18,20.5 C18,28.5081289 23.5964406,35 30.5,35 Z M30.5,33.9259259 C36.8282628,33.9259259 41.9583333,27.9149341 41.9583333,20.5 C41.9583333,13.0850659 36.8282628,7.07407407 30.5,7.07407407 C28.1593231,7.07407407 25.9825695,7.89643042 24.1687014,9.3080155 C21.0785888,11.7127971 19.0416667,15.8276771 19.0416667,20.5 C19.0416667,27.9149341 24.1717372,33.9259259 30.5,33.9259259 Z"  fill="#634D1E"></path>
            <path d="M22.6946843,19.3912467 L31.3927027,17.2478186 L31.5392507,17.8316628 L23.9664408,19.5922422 L22.6946843,19.3912467 Z"  fill="#634D1E"></path>
            <path d="M31.6209488,33.2938978 C31.6209488,33.2938978 32.1944548,31.9356813 33.4442469,30.1220884 C34.3495382,28.8084061 35.4423854,27.8889138 35.4423854,27.8889138 C35.4423854,27.8889138 37.8771159,27.6717258 37.8771159,27.6717258 C37.8771159,27.6717258 36.0106481,29.1196673 34.9631322,30.3253129 C33.9156164,31.5309584 33.0428772,33.2938978 33.0428772,33.2938978 L31.6209488,33.2938978 Z"  fill="#634D1E"></path>
            <path d="M19.1661224,15.6427042 C18.8563653,16.8769792 18.3462684,18.4933571 18.0401815,19.4080951 C18.0165295,21.8556145 19.5981488,27.398571 19.6646067,27.530977 C19.8718919,27.9439568 21.3511202,29.8181703 21.858665,30.3237679 C24.1103983,32.5668627 26.5449053,34.408121 30.7947449,34.408121 C33.6529377,34.4138981 38.232864,32.5789732 39.488109,30.0781146 C39.640665,29.774173 40.2208328,29.5064954 40.379736,29.1899081 C40.9694605,28.0149841 41.3494633,26.558514 42.0515368,25.859134 C42.179756,25.7314067 42.5247452,23.0289093 42.8317105,22.417334 C42.9048823,21.7881558 42.5432744,21.5062536 42.9431639,21.3070759 L42.9431639,19.530663 L42.8317105,19.530663 C42.7370329,15.0305314 39.9880507,10.1204298 37.0361345,8.65013407 C36.923775,8.59416984 36.9255872,8.26199507 36.8132277,8.20603084 C35.232584,7.41874097 34.8698778,7.46013524 33.4696261,6.76269537 C32.6391475,6.75773779 32.4332926,6.74613263 32.0207321,6.54064376 C29.779504,6.46840488 25.5471262,6.53338564 25.0844394,7.91612089 C25.0374465,8.05655866 24.6127547,8.10135474 24.5076754,8.20603087 C24.1734294,8.53899458 23.0104137,9.49059283 22.8900978,9.73030134 C21.2498231,10.5902619 19.5597303,14.0743126 19.1661224,15.6427042 Z M28.7204439,10.4119376 C28.7204439,10.4119376 26.2252501,11.3543091 25.2310129,13.6121329 C24.4437921,15.3998409 24.4114666,17.6837803 24.4287984,18.5883408 C24.4333562,18.8262142 24.4419019,18.9635572 24.4419019,18.9635572 C24.441902,18.9635574 23.507342,19.18835 23.507342,19.18835 C23.507342,18.7818732 23.2936058,15.7007996 24.4419019,13.6121329 C25.9837799,10.8075697 28.7204439,10.4119376 28.7204439,10.4119376 Z M29.4123662,12.922743 C30.129121,13.7033124 31.1710051,17.3389416 31.1710051,17.3389416 C31.1710051,17.3389416 28.9472274,17.9173447 28.9472275,17.9173446 C28.9472274,17.9173446 27.6537272,13.9694146 27.6537272,13.5693902 C27.6537272,12.3290309 28.6812159,12.1264965 29.4123662,12.922743 Z M31.5728199,16.5415808 C31.5728199,16.5415808 32.4985695,16.2669995 32.7806306,16.1967547 C35.1882628,15.7012148 33.4549916,16.8087881 33.3581727,17.3101469 C34.9536803,17.0038523 36.0859247,17.6193916 36.0859247,17.6193916 C35.8883869,16.8270783 36.0267373,16.5216095 36.164571,16.5415808 C36.4097904,16.5771116 37.1650275,17.9253515 37.2189533,18.0327895 C37.6108169,18.986052 37.8290506,19.2843898 37.4885889,19.4025878 C37.0074374,19.569629 36.9039229,19.6514394 36.7994002,19.732467 C36.1451648,20.2396401 37.2033526,20.5368902 36.7994002,20.9392928 C36.6566859,21.0814597 34.9813155,21.3335477 35.7856444,21.4613172 C36.7733819,21.6182215 36.7376945,21.8013962 36.6158811,21.85534 C36.3830577,21.9584436 35.2489083,22.0883391 36.4354781,22.6548349 C36.947792,22.8994254 37.3704942,24.0094243 36.2308832,24.3601505 C35.9428905,24.4487831 35.3059215,24.5039742 34.9631957,24.4572391 C33.2922734,24.2293873 31.0113601,22.582002 31.0113601,22.582002 C31.0113601,22.582002 34.2728544,25.8107023 34.6325886,25.9898794 C34.767756,27.1590101 34.3612533,27.302469 33.3581727,27.3024694 C32.577999,27.3024694 29.8362427,27.3394776 29.8362427,27.302469 C28.5791092,27.3394775 28.3877511,27.1933726 28.1812998,26.0798228 C27.5070521,22.4430883 28.2752255,20.8503985 28.4542238,20.8503985 C28.5254491,20.8503985 29.2436276,21.388864 29.9113922,21.2562574 C30.5841778,21.1226537 31.6972176,20.323457 31.686372,17.7542501 C31.6836504,17.1095364 31.5728199,16.5415808 31.5728199,16.5415808 Z M26.6480459,19.3230681 L28.4964574,18.777181 L26.6480459,24.150698 L26.6480459,19.3230681 Z M37.1940308,22.2548756 C37.4557427,21.8638137 37.8265076,21.8005705 37.6551005,21.1893894 C37.5768432,20.9103495 37.1608959,20.51614 37.1940308,20.2684547 C37.1940308,20.1823138 38.2052298,19.7961218 38.2355703,19.449329 C38.2052298,18.1527854 36.7891006,16.135263 36.7891006,16.135263 C38.6395467,16.3609072 38.8777542,15.8244421 38.7079353,14.978605 C38.5103083,13.4263164 37.3364802,11.7578736 34.7205175,10.8558192 C34.7205175,10.8558192 34.4505795,7.98623936 34.5226633,7.69901042 C34.5781735,7.47782157 37.2396653,9.47317682 37.3704946,9.53834051 C39.1607086,10.4300135 41.381035,15.082532 41.9400834,17.3101469 L41.9400834,17.9763017 L42.0515368,17.9763017 L42.0515368,18.7534824 L42.1629902,18.7534824 L42.1629902,21.6401533 L42.0515368,21.6401533 L42.0515368,22.7504114 L41.9400834,22.7504114 C41.9365076,24.1641539 41.2998665,25.3111856 41.0180104,26.434285 C40.9275426,26.434285 36.143781,25.7731499 35.5715128,25.6679977 C35.3655841,25.630159 35.104916,25.493892 34.8555697,25.3349347 C34.411992,25.0521556 34.0042445,24.6975681 34.0042445,24.6975681 C34.0042445,24.6975681 34.9413249,24.9314073 35.4898148,24.9314073 C36.0383046,24.9314073 37.4498101,24.5981833 37.4498697,23.7424786 C37.4499388,22.7504114 36.9928971,22.5554185 37.1940308,22.2548756 Z M21.6394119,29.8066316 L23.8736165,20.9850509 L20.7128855,28.4791169 L21.6394119,29.8066316 Z M29.7038727,28.7960815 L29.3039652,30.659781 L30.1356328,30.752412 L30.4031703,28.8972349 L29.7038727,28.7960815 Z M32.4350688,31.7728611 L32.0066147,32.7427339 L30.5307083,32.7427339 L31.2543564,31.7728611 L32.4350688,31.7728611 Z M30.5422796,13.9094961 C30.5422796,13.9094961 29.7949804,12.2607558 29.0230128,12.1912661 C31.5541916,11.5158397 33.3182983,13.027447 33.3182983,13.027447 C31.9897664,13.3706235 30.5422796,13.9094961 30.5422796,13.9094961 Z M26.1480026,14.7727413 C26.1495224,14.7392114 26.1469919,14.2640736 26.1480026,14.2330164 C26.2028912,12.5463827 25.32963,14.2137833 25.0468903,15.8519287 C24.7712502,17.4489397 24.8662643,18.916029 24.8662643,18.916029 L26.1480026,18.6307283 L26.1480026,14.7727413 Z M27.1545105,13.5657846 C27.2435837,13.832402 27.6092224,15.202266 27.6092224,15.202266 C27.6092224,15.202266 27.2070262,15.3569788 26.6285274,15.5483375 C26.3825429,12.0406833 27.0654373,13.2991672 27.1545105,13.5657846 Z M31.3019129,16.1008458 L30.7020518,14.3520011 C30.7020518,14.3520011 32.5209741,13.6604968 33.4696261,13.4242437 C33.9154398,13.3132179 35.9303173,12.8814598 36.9867657,13.1794614 C37.8545458,13.4242437 38.3351976,15.3959425 38.0682324,15.5805256 C37.8012671,15.7651086 36.2963053,15.0979004 33.7871246,15.4979903 C32.9335715,15.6340896 31.3019129,16.1008458 31.3019129,16.1008458 Z M30.465477,20.0697541 C30.7367019,19.2662355 30.2173956,19.2854388 29.9251887,19.2854388 C28.0836865,19.2480514 29.7124801,21.5699704 30.465477,20.0697541 Z M27.7113928,15.6423453 C27.6953551,15.6183811 26.5952123,16.0168683 26.5952123,16.0168683 L26.5952123,18.5304272 L28.5243682,18.0609786 C28.5243682,18.0609786 27.773216,15.7347243 27.7113928,15.6423453 Z M37.1572825,28.0796501 L38.1467514,28.0796501 L37.5028941,28.7355076 L36.1423187,28.7355076 L37.1572825,28.0796501 Z M35.305692,29.8017149 L36.1210836,29.0780391 L37.2761739,29.0780391 L36.6289469,29.8017149 L35.305692,29.8017149 Z M33.8103943,28.7815936 L34.3965225,28.2760236 L35.1735764,28.2760236 L34.5575027,28.7815936 L33.8103943,28.7815936 Z M35.3892339,31.5132581 L34.7472839,32.7204116 L33.1299795,32.7204116 L33.9184138,31.5132581 L35.3892339,31.5132581 Z M22.3096542,30.7560832 L26.1137027,27.524521 C26.1137027,27.524521 25.7884674,25.472116 25.5166702,23.814001 C25.244873,22.1558861 24.5045675,21.7033511 24.5045675,21.7033511 L22.3096542,30.7560832 Z M29.265564,10.2450313 C29.265564,10.2450313 30.2973832,10.113792 30.8132928,10.0481723 C31.8927532,9.91087345 34.0516739,9.63627568 34.0516739,9.63627568 L34.1471685,10.6624281 C34.1471685,10.6624281 32.7868474,10.3187165 31.948822,10.2450313 C31.1107966,10.171346 29.265564,10.2450313 29.265564,10.2450313 Z M18.9737651,23.0849496 L19.4218012,24.8817817 L23.2207947,19.9759431 L18.9737651,23.0849496 Z M30.9538854,28.9395842 L30.7358119,30.8049882 L31.5065715,30.8771656 L31.6241277,29.0162195 L30.9538854,28.9395842 Z M23.5535634,20.267013 L20.2509257,27.8725902 L19.6299566,25.6166676 L23.5535634,20.267013 Z M28.4397456,28.5262519 L29.1143112,28.6738846 L28.6465022,30.5400097 L27.6803665,30.313775 L28.4397456,28.5262519 Z M33.9247716,7.81328667 L34.043663,9.15469925 C34.043663,9.15469925 29.2710317,9.81589988 29.2710317,9.81589988 L33.9247716,7.81328667 Z M34.9489543,30.1891404 L34.2942251,30.940624 L35.8089142,30.940624 L36.3698654,30.1891404 L34.9489543,30.1891404 Z M32.7331238,29.856063 L33.7295863,29.856063 L34.2792206,29.1899081 L33.3581727,29.1899081 C33.3581728,29.1899082 32.7331238,29.856063 32.7331238,29.856063 Z M33.3301239,30.4482964 L32.7911708,31.1883726 L31.657252,31.1883726 L32.2245611,30.4482964 L33.3301239,30.4482964 Z M27.1027578,28.1388798 L27.7841899,28.3519378 L26.8680585,30.0984226 L25.9519272,29.7079694 L27.1027578,28.1388798 Z"  fill="#634D1E"></path>
            <path d="M0,4.00002553 C0,1.79087243 1.79568082,0 4.0065556,0 L55.9934444,0 C58.206204,0 60,1.79642476 60,4.00002553 L60,35.9999745 C60,38.2091276 58.2043192,40 55.9934444,40 L4.0065556,40 C1.79379604,40 0,38.2035752 0,35.9999745 L0,4.00002553 Z M2,3.99970728 C2,2.89529944 2.90230818,2 3.99306965,2 L56.0069304,2 C57.1076723,2 58,2.88989258 58,3.99970728 L58,36.0002927 C58,37.1047006 57.0976918,38 56.0069304,38 L3.99306965,38 C2.89232768,38 2,37.1101074 2,36.0002927 L2,3.99970728 Z"  fill="#634D1E"></path>
        </g>
        <g  transform="translate(60.000000, 0.000000)">
            <path d="M60,35 C60,37.75 57.75,40 55,40 L5,40 C2.25,40 0,37.75 0,35 L0,5 C0,2.25 2.25,0 5,0 L55,0 C57.75,0 60,2.25 60,5 L60,35 L60,35 Z"  fill="#FFFFFF"></path>
            <circle  fill="#ED3B32" cx="22.5" cy="19" r="10"></circle>
            <path d="M37.449,9 C34.459,9 31.782,10.32 29.949,12.4 C29.516,12.892 29.137,13.43 28.805,14 L31.093,14 C31.457,14.625 31.74,15.299 31.964,16 L27.92,16 C27.717,16.643 27.57,17.309 27.501,18 L32.38,18 C32.414,18.33 32.448,18.66 32.448,19 C32.448,19.338 32.428,19.671 32.395,20 L27.5,20 C27.569,20.691 27.716,21.357 27.919,22 L31.975,22 C31.752,22.704 31.453,23.372 31.089,24 L28.804,24 C29.135,24.568 29.515,25.107 29.948,25.599 C31.781,27.68 34.458,29 37.448,29 C42.97,29 47.448,24.521 47.448,19 C47.449,13.477 42.971,9 37.449,9 L37.449,9 Z"  fill="#FAB946"></path>
            <path d="M0,4.00002553 C0,1.79087243 1.79568082,0 4.0065556,0 L55.9934444,0 C58.206204,0 60,1.79642476 60,4.00002553 L60,35.9999745 C60,38.2091276 58.2043192,40 55.9934444,40 L4.0065556,40 C1.79379604,40 0,38.2035752 0,35.9999745 L0,4.00002553 Z M2,3.99970728 C2,2.89529944 2.90230818,2 3.99306965,2 L56.0069304,2 C57.1076723,2 58,2.88989258 58,3.99970728 L58,36.0002927 C58,37.1047006 57.0976918,38 56.0069304,38 L3.99306965,38 C2.89232768,38 2,37.1101074 2,36.0002927 L2,3.99970728 Z"  fill="#D9D9D9"></path>
        </g>
        <g >
            <path d="M60,35 C60,37.75 57.75,40 55,40 L5,40 C2.25,40 0,37.75 0,35 L0,5 C0,2.25 2.25,0 5,0 L55,0 C57.75,0 60,2.25 60,5 L60,35 L60,35 Z"  fill="#FFFFFF"></path>
            <path d="M0,4.00002553 C0,1.79087243 1.79568082,0 4.0065556,0 L55.9934444,0 C58.206204,0 60,1.79642476 60,4.00002553 L60,35.9999745 C60,38.2091276 58.2043192,40 55.9934444,40 L4.0065556,40 C1.79379604,40 0,38.2035752 0,35.9999745 L0,4.00002553 Z M2,3.99970728 C2,2.89529944 2.90230818,2 3.99306965,2 L56.0069304,2 C57.1076723,2 58,2.88989258 58,3.99970728 L58,36.0002927 C58,37.1047006 57.0976918,38 56.0069304,38 L3.99306965,38 C2.89232768,38 2,37.1101074 2,36.0002927 L2,3.99970728 Z"  fill="#D9D9D9"></path>
            <path d="M30,30 C35.5228475,30 40,25.5228475 40,20 C40,14.4771525 35.5228475,10 30,10 C24.4771525,10 20,14.4771525 20,20 C20,25.5228475 24.4771525,30 30,30 Z M28.142,25.152 C27.8339985,25.077333 27.5493346,24.9653341 27.288,24.816 C27.0266654,24.6666659 26.8003343,24.4916677 26.609,24.291 C26.4176657,24.0903323 26.2683339,23.8663346 26.161,23.619 C26.0536661,23.3716654 26,23.112668 26,22.842 C26,22.6273323 26.037333,22.422001 26.112,22.226 C26.186667,22.029999 26.2869994,21.8550008 26.413,21.701 C26.5390006,21.5469992 26.6836659,21.4256671 26.847,21.337 C27.0103342,21.2483329 27.1806658,21.204 27.358,21.204 C27.6380014,21.204 27.8666658,21.3159989 28.044,21.54 C27.7826654,21.6426672 27.5750008,21.822332 27.421,22.079 C27.2669992,22.335668 27.19,22.6273317 27.19,22.954 C27.19,23.3273352 27.2903323,23.6399987 27.491,23.892 C27.6916677,24.1440013 27.9693316,24.3213328 28.324,24.424 L29.43,19.874 C29.1873321,19.6966658 28.9516678,19.510001 28.723,19.314 C28.4943322,19.117999 28.2936675,18.9080011 28.121,18.684 C27.9483325,18.4599989 27.8083339,18.2173346 27.701,17.956 C27.5936661,17.6946654 27.54,17.4006683 27.54,17.074 C27.54,16.681998 27.6239992,16.3133351 27.792,15.968 C27.9600008,15.6226649 28.1886652,15.3193346 28.478,15.058 C28.7673348,14.7966654 29.1103313,14.5913341 29.507,14.442 C29.9036687,14.2926659 30.335331,14.2086668 30.802,14.19 L31.096,13 L31.894,13 L31.586,14.246 C32.1740029,14.3486672 32.6476649,14.5679983 33.007,14.904 C33.3663351,15.2400017 33.546,15.6506642 33.546,16.136 C33.546,16.5466687 33.4223346,16.8756654 33.175,17.123 C32.9276654,17.3703346 32.608002,17.494 32.216,17.494 C32.0573325,17.494 31.9360004,17.4706669 31.852,17.424 C31.7679996,17.3773331 31.6980003,17.3026672 31.642,17.2 C31.8566677,17.1346663 32.0386659,16.9900011 32.188,16.766 C32.3373341,16.5419989 32.412,16.2900014 32.412,16.01 C32.412,15.4313304 32.08067,15.0766673 31.418,14.946 L30.522,18.656 C30.7833346,18.8426676 31.0446654,19.0386656 31.306,19.244 C31.5673346,19.4493344 31.802999,19.6779987 32.013,19.93 C32.223001,20.1820013 32.395666,20.4643318 32.531,20.777 C32.666334,21.0896682 32.734,21.4466647 32.734,21.848 C32.734,22.314669 32.6336677,22.7533313 32.433,23.164 C32.2323323,23.5746687 31.9616684,23.9339985 31.621,24.242 C31.2803316,24.5500015 30.8836689,24.7949991 30.431,24.977 C29.9783311,25.1590009 29.4953359,25.25 28.982,25.25 L28.926,25.25 L28.464,27.154 L27.666,27.154 L28.142,25.152 Z M31.488,22.52 C31.488,22.0719978 31.352668,21.6800017 31.082,21.344 C30.811332,21.0079983 30.4846686,20.6906682 30.102,20.392 L29.108,24.508 C29.4440017,24.4986666 29.7589985,24.4403339 30.053,24.333 C30.3470015,24.2256661 30.598999,24.0856675 30.809,23.913 C31.0190011,23.7403325 31.1846661,23.5350012 31.306,23.297 C31.4273339,23.0589988 31.488,22.8000014 31.488,22.52 L31.488,22.52 Z M28.912,16.528 C28.912,16.8640017 29.0006658,17.1579987 29.178,17.41 C29.3553342,17.6620013 29.579332,17.9046655 29.85,18.138 L30.62,14.932 C30.1066641,14.9786669 29.6936682,15.1443319 29.381,15.429 C29.0683318,15.7136681 28.912,16.0799978 28.912,16.528 L28.912,16.528 Z"  fill="#999999"></path>
        </g>
    </g>
</svg>
