<svg width="30" height="30" viewBox="0 0 30 30" xmlns="http://www.w3.org/2000/svg"><path d="M12.059 27.615a4.013 4.013 0 0 0 5.67 0l9.886-9.886a4.013 4.013 0 0 0 0-5.67L17.73 2.173a4.013 4.013 0 0 0-5.67 0l-9.886 9.886a4.013 4.013 0 0 0 0 5.67l6.122 6.122c.39.39.705.255.705-.29V18a4 4 0 0 1 4-4h5.587l-3.29-3.29a.994.994 0 0 1-.002-1.416.996.996 0 0 1 1.413-.001l4.246 4.246c.779.779.78 2.045 0 2.825l-4.246 4.246a.999.999 0 1 1-1.41-1.418L18.488 16H13a2 2 0 0 0-2 2v8.047c0 .281.156.666.359.868l.7.7z" fill="#010101" fill-rule="evenodd"/></svg>