<svg width="30" height="30" viewBox="0 0 30 30" xmlns="http://www.w3.org/2000/svg"><path d="M12.059 2.173a4.013 4.013 0 0 1 5.67 0l9.886 9.886a4.013 4.013 0 0 1 0 5.67l-9.886 9.886a4.013 4.013 0 0 1-5.67 0L2.173 17.73a4.013 4.013 0 0 1 0-5.67l9.886-9.886zm1.424 24.038c.78.78 2.043.78 2.822 0l9.906-9.906c.78-.78.78-2.042 0-2.822l-9.906-9.906a1.995 1.995 0 0 0-2.822 0l-9.906 9.906c-.78.78-.78 2.043 0 2.822l4.714 4.714c.392.392.709.252.709-.29V18a4 4 0 0 1 4-4h5.587l-3.29-3.29a.994.994 0 0 1-.002-1.416.996.996 0 0 1 1.413-.001l4.246 4.246c.779.779.78 2.045 0 2.825l-4.246 4.246a.999.999 0 1 1-1.41-1.418L18.488 16H13a2 2 0 0 0-2 2v5.22c0 .28.163.67.356.864l2.127 2.127z" fill="#010101" fill-rule="evenodd"/></svg>