<?xml version="1.0" encoding="UTF-8" standalone="no"?>
<svg width="30" height="30" viewBox="0 0 30 30" xmlns="http://www.w3.org/2000/svg">
  <path d="M7.894 20.622l-4.317-4.317a1.995 1.995 0 0 1 0-2.822l9.906-9.906c.78-.78 2.043-.78 2.822 0l9.906 9.906c.78.78.78 2.043 0 2.822l-9.906 9.906c-.78.78-2.042.78-2.822 0l-.71-.71a1 1 0 1 0-1.414 1.414l.7.7a4.013 4.013 0 0 0 5.67 0l9.886-9.886a4.013 4.013 0 0 0 0-5.67L17.73 2.173a4.013 4.013 0 0 0-5.67 0l-9.886 9.886a4.013 4.013 0 0 0 0 5.67l6.004 6.004a1 1 0 0 0 1.707-.693c.007-.048.01-.096.01-.146v-7.5a1.5 1.5 0 0 1 1.5-1.5h6.5v-1.586l2.591 2.592-2.59 2.591v-1.597h-4a1 1 0 1 0 0 2h2v2a1 1 0 0 0 1.708.706l5.691-5.706-5.686-5.7a1 1 0 0 0-1.714.7v2h-4.5a3.5 3.5 0 0 0-3.5 3.5v5.228z" fill="#050505" fill-rule="evenodd"/>
</svg>
