<?xml version="1.0" encoding="UTF-8" standalone="no"?>
<svg width="30" height="30" viewBox="0 0 30 30" xmlns="http://www.w3.org/2000/svg">
  <path d="M14 17.522l-3.178-3.178a.998.998 0 0 0-1.415 0 .998.998 0 0 0 0 1.414l5.657 5.656 5.656-5.656a.998.998 0 0 0 0-1.415.998.998 0 0 0-1.414 0L16 17.65V9.002a.999.999 0 1 0-2 0v8.52zM15 0c8.284 0 15 6.716 15 15 0 8.284-6.716 15-15 15-8.284 0-15-6.716-15-15C0 6.716 6.716 0 15 0zm0 2c7.18 0 13 5.82 13 13s-5.82 13-13 13S2 22.18 2 15 7.82 2 15 2z" fill="#050505" fill-rule="evenodd"/>
</svg>
