<?xml version="1.0" encoding="UTF-8" standalone="no"?>
<svg width="30px" height="30px" viewBox="0 0 30 30" version="1.1" xmlns="http://www.w3.org/2000/svg" xmlns:xlink="http://www.w3.org/1999/xlink" xmlns:sketch="http://www.bohemiancoding.com/sketch/ns">
    <!-- Generator: Sketch 3.5.2 (25235) - http://www.bohemiancoding.com/sketch -->
    <title>edit</title>
    <desc>Created with Sketch.</desc>
    <defs></defs>
    <g id="Icons" stroke="none" stroke-width="1" fill="none" fill-rule="evenodd" sketch:type="MSPage">
        <g id="edit" sketch:type="MSArtboardGroup" fill="#050505">
            <path d="M0.471855881,15.5760757 L4.47185588,17.621856 L28.4718559,17.621856 C29.0279911,17.621856 29.4718559,17.1782696 29.4718559,16.631078 L29.4718559,12.6126339 C29.4718559,12.0728312 29.0241406,11.621856 28.4718559,11.621856 L4.47185588,11.621856 L0.471855881,13.6676363 C0.0661452847,13.7950627 -0.228143928,14.1740919 -0.228143928,14.621856 C-0.228143928,15.0696201 -0.0373604272,15.3149712 0.471855881,15.5760757 L0.471855881,15.5760757 Z M3.77185607,15.2718561 L4.47185588,15.621856 L25.4718559,15.621856 L25.4718559,13.621856 L4.47185588,13.621856 L3.77185607,13.9718559 L3.77185607,15.2718561 L3.77185607,15.2718561 Z" id="Rectangle-8" sketch:type="MSShapeGroup" transform="translate(14.621856, 14.621856) rotate(-45.000000) translate(-14.621856, -14.621856) "></path>
        </g>
    </g>
</svg>