<svg width="30" height="30" viewBox="0 0 30 30" xmlns="http://www.w3.org/2000/svg"><path d="M15 5h11a4 4 0 0 1 4 4v12c0 2.21-1.787 4-4 4H4a4 4 0 0 1-4-4V8.99A4 4 0 0 1 4 5h11zm12.415 17.416c.361-.36.585-.86.585-1.41V8.994C28 7.894 27.106 7 26.003 7H3.997A1.997 1.997 0 0 0 2 8.994v12.012C2 22.107 2.895 23 3.997 23h22.006c.551 0 1.05-.224 1.412-.585v.001zm-12.444-8.56c.418-.001.9-.178 1.05-.234C18.719 12.625 25.832 10 26 10a1 1 0 0 1 .395 1.919c-.04.017-8 2.88-10.371 3.734-.12.041-.615.188-1.053.189-.462 0-.868-.146-.995-.189-2.372-.853-10.33-3.717-10.371-3.734A1 1 0 0 1 4 10c.168 0 7.282 2.625 9.978 3.622.162.06.546.237.993.235z" fill="#050505" fill-rule="evenodd"/></svg>