<?xml version="1.0" encoding="UTF-8" standalone="no"?>
<svg width="30px" height="30px" viewBox="0 0 30 30" version="1.1" xmlns="http://www.w3.org/2000/svg" xmlns:xlink="http://www.w3.org/1999/xlink" xmlns:sketch="http://www.bohemiancoding.com/sketch/ns">
    <!-- Generator: Sketch 3.4.2 (15855) - http://www.bohemiancoding.com/sketch -->
    <title>email</title>
    <desc>Created with Sketch.</desc>
    <defs></defs>
    <g id="Icons" stroke="none" stroke-width="1" fill="none" fill-rule="evenodd" sketch:type="MSPage">
        <g id="email" sketch:type="MSArtboardGroup" fill="#050505">
            <path d="M13.9939564,14.6126852 C11.9565453,13.7608519 4.86757563,10.7949194 4.60392007,10.6560498 C3.65022065,10.1537283 3,9.15279773 3,8 C3,6.34314575 4.34314575,5 6,5 L26.0007252,5 C28.2094637,5 30,6.79246765 30,8.99922997 L30,21.00077 C30,23.2094838 28.2132053,25 26.0007252,25 L3.9992748,25 C1.79053632,25 0,23.2075324 0,21.00077 L0,8 C0,7.44771525 0.44771525,7 1,7 C1.55228475,7 2,7.44771525 2,8 L2,21.0059397 C2,22.1054862 2.89408944,23 3.99700466,23 L26.0029953,23 C27.1050211,23 28,22.1072288 28,21.0059397 L28,8.99406028 C28,7.89451376 27.1059106,7 26.0029953,7 L7.41464715,7 L6,7 C5.44771525,7 5,7.44771525 5,8 C5,8.41488465 5.25265652,8.7707582 5.61250019,8.92215129 C5.69514831,8.95692293 11.6313244,11.5362211 14.0202269,12.5742574 C14.6230554,12.8362011 15.3893491,12.8556904 16.0215659,12.6218917 C18.7178478,11.6247854 25.8315466,9 26,9 C26.5522847,9 27,9.44771525 27,10 C27,10.4119002 26.7509654,10.7656352 26.3952487,10.9188525 C26.354733,10.9363037 18.3959477,13.7998817 16.0238424,14.6533034 C15,15 15,15 13.9939564,14.6126852 Z" id="Rectangle-118" sketch:type="MSShapeGroup"></path>
        </g>
    </g>
</svg>