<?xml version="1.0" encoding="UTF-8" standalone="no"?>
<svg width="30" height="30" viewBox="0 0 30 30" xmlns="http://www.w3.org/2000/svg">
  <path d="M15 5h11a4 4 0 0 1 4 4v12c0 2.21-1.787 4-4 4H4a4 4 0 0 1-4-4V8.995 8.99A4 4 0 0 1 4 5h11zm-.029 8.857c.418-.002.9-.18 1.05-.235C18.719 12.625 25.832 10 26 10a1 1 0 0 1 .395 1.919c-.04.017-8 2.88-10.371 3.734-.12.041-.615.188-1.053.189-.462 0-.868-.146-.995-.189-2.372-.853-10.33-3.717-10.371-3.734A1 1 0 0 1 4 10c.168 0 7.282 2.625 9.978 3.622.162.06.546.237.993.235z" fill="#050505" fill-rule="evenodd"/>
</svg>
