<?xml version="1.0" encoding="UTF-8" standalone="no"?>
<svg width="30" height="30" viewBox="0 0 30 30" xmlns="http://www.w3.org/2000/svg">
  <path d="M29.372 15c-.02-.61-.405-1.066-1.103-1.067-.656 0-.86.822-.887 1.03-.009.96-1.184 2.414-2.974 4.48-1.148 1.324-2.823 2.445-3.696 2.98C18.48 23.79 16.067 24 15.002 24c-1.071 0-3.484-.21-5.716-1.577-.873-.535-2.548-1.656-3.696-2.98C3.8 17.377 2.625 15.923 2.625 15c-.035-.245-.24-1.067-.896-1.067-.698 0-1.082.456-1.102 1.047a1.854 1.854 0 0 0 0 .073c-.003.524.107 1.047.335 1.473.028.054.058.106.09.157 0 0 .778 1.465 2.278 3.234l-1.307 1.097a1.013 1.013 0 0 0-.132 1.423c.357.426.989.476 1.416.117l1.39-1.166c.478.469 1.002.937 1.571 1.386L5.022 24.26a1.02 1.02 0 0 0-.217.441.995.995 0 0 0 .332.984 1.002 1.002 0 0 0 1.415-.13l1.365-1.627c.543.333 1.118.64 1.722.911l-.373 2.116a1 1 0 1 0 1.972.338l.31-1.763a12.937 12.937 0 0 0 2.45.432v1.792a1 1 0 0 0 .977 1.005c.58 0 1.023-.45 1.023-1.005v-1.792a12.783 12.783 0 0 0 2.451-.432l.311 1.763.01.049a1 1 0 1 0 1.962-.387l-.373-2.116c.605-.27 1.179-.578 1.722-.91l1.365 1.625c.358.427.989.488 1.415.13a.995.995 0 0 0 .333-.983 1.02 1.02 0 0 0-.218-.44l-1.246-1.486a19.521 19.521 0 0 0 1.571-1.386l1.39 1.166a1.002 1.002 0 0 0 1.416-.117 1.013 1.013 0 0 0-.132-1.423l-1.307-1.097c1.5-1.769 2.278-3.234 2.278-3.234.032-.051.062-.103.09-.157.228-.426.338-.95.336-1.473V15z" fill="#050505" fill-rule="evenodd"/>
</svg>
