<?xml version="1.0" encoding="UTF-8" standalone="no"?>
<svg width="30" height="30" viewBox="0 0 30 30" xmlns="http://www.w3.org/2000/svg">
  <path d="M15 26c9 0 13.946-9.317 13.946-9.317.582-.93.572-2.44-.06-3.354C28.886 13.33 23.5 4 15 4S1.097 13.353 1.097 13.353c-.606.91-.637 2.42-.035 3.342C1.062 16.695 6 26 15 26zM9.798 7.43c-1.206.66-2.853 1.923-4.1 3.256-1.092 1.167-2.082 2.338-2.618 3.183-.363.574-.461 1.018-.461 1.131 0 1.089 1.855 3.577 4.027 5.518.851.76 1.69 1.326 2.611 1.905C11.713 23.965 14.132 24 15 24c1.065 0 3.479-.208 5.712-1.577.873-.535 2.548-1.656 3.696-2.98 1.79-2.066 2.965-3.52 2.965-4.443 0-.328-.568-1.932-3.878-5.066-1.468-1.39-2.755-2.403-4.93-3.271C16.391 5.794 15 6 15 6s-2.224-.198-5.202 1.43zM15 22a7 7 0 1 0 0-14 7 7 0 0 0 0 14zm0-2a5 5 0 1 0 0-10 5 5 0 0 0 0 10zm-3.992-4.737a4 4 0 1 1 2.213 3.321 2 2 0 1 0-2.213-3.321z" fill="#050505" fill-rule="evenodd"/>
</svg>
