<svg width="30" height="30" viewBox="0 0 30 30" xmlns="http://www.w3.org/2000/svg"><path d="M21 30H4c-2.21 0-4-1.787-4-4V4c0-2.21 1.787-4 4-4h22c2.21 0 4 1.787 4 4v22c0 2.21-1.787 4-4 4h-5v-2h5.003A1.998 1.998 0 0 0 28 26.003V3.997A1.998 1.998 0 0 0 26.003 2H3.997A1.998 1.998 0 0 0 2 3.997v22.006C2 27.105 2.894 28 3.997 28h12.03v-7.919H12.9V16.46h3.128v-2.671c0-3.1 1.893-4.788 4.658-4.788 1.325 0 2.463.099 2.795.143v3.24h-1.918c-1.504 0-1.795.715-1.795 1.764v2.312h3.587l-.467 3.622h-3.12V28H21v2z" fill="#050505" fill-rule="evenodd"/></svg>