<?xml version="1.0" encoding="UTF-8" standalone="no"?>
<svg width="30" height="30" viewBox="0 0 30 30" xmlns="http://www.w3.org/2000/svg">
  <path d="M0 14.996C0 6.716 6.716 0 15 0c8.284 0 15 6.716 15 15L16.411 28.589c-.78.78-2.046.776-2.822 0L0 14.995zm15.722 10.81a1.047 1.047 0 0 1-1.443 0s-6.135-5.912-6.135-5.932A7.996 7.996 0 0 1 15 16a7.996 7.996 0 0 1 6.867 3.894l-6.145 5.912zm6.058-9.157l3.877-4.015a.997.997 0 0 0-.025-1.414 1.002 1.002 0 0 0-1.42.03l-4.043 4.188a9.995 9.995 0 0 0 1.61 1.21zM9.647 15.552L5.49 11.246a.998.998 0 0 0-1.415-.026.998.998 0 0 0-.024 1.415l4.017 4.159a10.043 10.043 0 0 1 1.58-1.242zm2.611-1.171l-2.98-7.375a.993.993 0 0 0-1.298-.544 1.003 1.003 0 0 0-.556 1.292l2.975 7.365a9.934 9.934 0 0 1 1.859-.738zM15 14c.337 0 .671.017 1 .05V5c0-.552-.444-1-1-1-.552 0-1 .445-1 1v9.05c.329-.033.663-.05 1-.05zm4.36.998l2.915-7.225a1.003 1.003 0 0 0-.549-1.311 1.003 1.003 0 0 0-1.302.552l-2.947 7.295c.656.167 1.286.4 1.883.69z" fill="#050505" fill-rule="evenodd"/>
</svg>
