<svg width="30" height="30" viewBox="0 0 30 30" xmlns="http://www.w3.org/2000/svg"><path d="M15.705 26.295a.998.998 0 0 1-1.41 0l-6.25-6.25A7.997 7.997 0 0 1 15 16a7.997 7.997 0 0 1 6.955 4.045l-6.25 6.25zM0 14.996C0 6.716 6.716 0 15 0c8.284 0 15 6.716 15 15L16.411 28.589c-.78.78-2.046.776-2.822 0L0 14.995zm2-.947C2.5 7.5 8.232 2 15 2c6.936 0 12.5 5.5 12.965 12.035L23.41 18.59a10.05 10.05 0 0 0-1.631-1.94l3.877-4.015a.997.997 0 0 0-.025-1.414 1.002 1.002 0 0 0-1.42.03l-4.043 4.188a9.978 9.978 0 0 0-.813-.442l2.92-7.224a1.002 1.002 0 0 0-.55-1.31 1.003 1.003 0 0 0-1.302.552l-2.947 7.295A9.967 9.967 0 0 0 16 14.05V5c0-.552-.444-1-1-1-.552 0-1 .445-1 1v9.05a9.91 9.91 0 0 0-1.742.33l-2.98-7.374a.993.993 0 0 0-1.298-.544 1.003 1.003 0 0 0-.556 1.292l2.975 7.365a9.989 9.989 0 0 0-.752.433L5.49 11.246a.998.998 0 0 0-1.415-.026.998.998 0 0 0-.024 1.415l4.017 4.159a10.049 10.049 0 0 0-1.478 1.795L2 14.049z" fill="#050505" fill-rule="evenodd"/></svg>