<?xml version="1.0" encoding="UTF-8" standalone="no"?>
<svg width="30px" height="30px" viewBox="0 0 30 30" version="1.1" xmlns="http://www.w3.org/2000/svg" xmlns:xlink="http://www.w3.org/1999/xlink" xmlns:sketch="http://www.bohemiancoding.com/sketch/ns">
    <!-- Generator: Sketch 3.4.2 (15855) - http://www.bohemiancoding.com/sketch -->
    <title>fan</title>
    <desc>Created with Sketch.</desc>
    <defs></defs>
    <g id="Icons" stroke="none" stroke-width="1" fill="none" fill-rule="evenodd" sketch:type="MSPage">
        <g id="fan" sketch:type="MSArtboardGroup" fill="#050505">
            <path d="M27.9801105,14.2747388 C27.6038506,7.43239867 21.9363277,2 15,2 C7.82029825,2 2,7.82029825 2,15 C2,15.6850133 2.05298225,16.3576519 2.1550724,17.0140415 L0,14.9962759 C0,6.71572875 6.71572875,0 15,0 C23.2842712,0 30,6.71572875 30,15 L15,30 L2.1550724,17.0140415 C2.05298225,16.3576519 2,15.6850133 2,15 C2,14.6755044 2.01188913,14.3537856 2.03525555,14.0352556 L6.58898664,18.5889866 C7.01111787,17.9341692 7.50763156,17.3318235 8.06658256,16.7938946 L3.35507536,11.9149861 L4.79375496,10.5256694 L9.64731022,15.551673 C9.89098901,15.3969598 10.1418174,15.2524991 10.3991885,15.1188977 L7.05283182,6.83637426 L8.90719953,6.08716108 L12.25797,14.3806089 C12.8200301,14.220699 13.4022735,14.1087211 14,14.0493752 L14,4 L16,4 L16,14.0493752 C16.5042944,14.0994446 16.9975678,14.186978 17.4769975,14.3091526 L20.7988978,6.08716108 L22.6532655,6.83637426 L19.3564512,14.996276 C19.6346858,15.1311485 19.9057248,15.2785382 20.1688366,15.4377133 L24.9123423,10.5256694 L26.3510219,11.9149861 L21.7795433,16.6488908 C22.4015409,17.2228139 22.9505328,17.874681 23.4110134,18.5889866 L27.9647444,14.0352556 C27.9705859,14.1148862 27.9757101,14.194716 27.9801105,14.2747388 Z M21.9553688,20.0446312 L15,27 L8.04463124,20.0446312 C9.42140456,17.6288345 12.0204849,16 15,16 C17.9795151,16 20.5785954,17.6288345 21.9553688,20.0446312 L21.9553688,20.0446312 L21.9553688,20.0446312 Z" id="Oval-40" sketch:type="MSShapeGroup"></path>
        </g>
    </g>
</svg>