<svg width="30" height="30" viewBox="0 0 30 30" xmlns="http://www.w3.org/2000/svg"><path d="M0 4c0-2.21 1.787-4 4-4h22c2.21 0 4 1.787 4 4v22c0 2.21-1.787 4-4 4H4c-2.21 0-4-1.787-4-4V4zm15.5 18.31c1.919 0 3.898-.652 5.224-1.862C22.261 19.046 23 16.925 23 14.655c0-.452-.035-.899-.103-1.337-.008-.047-7.242 0-7.242 0v2.992h4.138s0 .414-.64 1.329c-.641.914-.057.084-.084.12-1.035 1.344-2.663 1.584-3.569 1.551-1.544-.056-2.725-.921-3.466-1.965-.624-.88-.93-1.866-.93-2.793 0-2.424 1.862-4.552 4.24-4.552 2.38 0 3.311 1.138 3.311 1.138l2.101-2.192s-.617-.57-.963-.808C18.598 7.316 17.05 7 15.5 7 11.358 7 8 10.427 8 14.655s3.358 7.655 7.5 7.655z" fill="#050505" fill-rule="evenodd"/></svg>