<svg width="30" height="30" viewBox="0 0 30 30" xmlns="http://www.w3.org/2000/svg"><path d="M2.038 14c-.025.33-.038.664-.038 1 0 7.18 5.82 13 13 13s13-5.82 13-13c0-.847-.081-1.675-.236-2.476A15.06 15.06 0 0 1 24 13c-5.107 0-9.619-2.553-12.328-6.452C10.55 10.825 6.663 13.983 2.038 14zM15 30c8.284 0 15-6.716 15-15 0-8.284-6.716-15-15-15C6.716 0 0 6.716 0 15c0 8.284 6.716 15 15 15zM9.5 18a1.5 1.5 0 1 0 0-3 1.5 1.5 0 0 0 0 3zm11 0a1.5 1.5 0 1 0 0-3 1.5 1.5 0 0 0 0 3zm-.29 3.162c.422.29.565.997 0 1.625A6.982 6.982 0 0 1 15 25.113a6.982 6.982 0 0 1-5.207-2.32c-.528-.589-.38-1.344 0-1.631.423-.32 1.13-.122 1.413.208A4.989 4.989 0 0 0 15 23.113c1.486 0 2.82-.648 3.736-1.677.388-.436 1.065-.557 1.475-.274z" fill="#050505" fill-rule="evenodd"/></svg>