<?xml version="1.0" encoding="UTF-8" standalone="no"?>
<svg width="30px" height="30px" viewBox="0 0 30 30" version="1.1" xmlns="http://www.w3.org/2000/svg" xmlns:xlink="http://www.w3.org/1999/xlink">
    <g stroke="none" stroke-width="1" fill="#050505" fill-rule="evenodd">
      <path d="M2.03789498,13.9999297 C2.01278474,14.3299943 2,14.6635041 2,15 C2,22.1797017 7.82029825,28 15,28 C22.1797017,28 28,22.1797017 28,15 C28,14.1532215 27.9190397,13.3253523 27.7644375,12.5237108 C26.5615172,12.8346058 25.3000735,13 24,13 C18.8925268,13 14.3812644,10.4473179 11.6724293,6.54817028 C10.5487263,10.8251012 6.66346613,13.9827697 2.03789498,13.9999297 L2.03789498,13.9999297 Z M15,30 C23.2842712,30 30,23.2842712 30,15 C30,6.71572875 23.2842712,0 15,0 C6.71572875,0 0,6.71572875 0,15 C0,23.2842712 6.71572875,30 15,30 L15,30 Z M9.5,18 C10.3284271,18 11,17.3284271 11,16.5 C11,15.6715729 10.3284271,15 9.5,15 C8.67157288,15 8,15.6715729 8,16.5 C8,17.3284271 8.67157288,18 9.5,18 L9.5,18 Z M20.5,18 C21.3284271,18 22,17.3284271 22,16.5 C22,15.6715729 21.3284271,15 20.5,15 C19.6715729,15 19,15.6715729 19,16.5 C19,17.3284271 19.6715729,18 20.5,18 L20.5,18 Z"></path>
      <path d="M20.2109315,24.9515381 C20.6321547,24.6614732 20.7745482,23.9538455 20.2109316,23.3259137 C18.9293954,21.8981392 17.0695835,21 15,21 C12.9327747,21 11.0748433,21.8960936 9.79345154,23.3210349 C9.26495393,23.9087382 9.41228446,24.6643434 9.79345155,24.9515381 C10.2164429,25.2702458 10.9224284,25.0733589 11.2056697,24.7436302 C12.1226525,23.6761459 13.4823651,23 15,23 C16.485996,23 17.8205857,23.6482478 18.7364052,24.6773798 C19.1241806,25.1131338 19.8008088,25.233959 20.2109315,24.9515381 Z" transform="translate(15.016138, 23.056577) scale(1, -1) translate(-15.016138, -23.056577) "></path>
    </g>
</svg>
