<?xml version="1.0" encoding="UTF-8" standalone="no"?>
<svg width="30" height="30" viewBox="0 0 30 30" xmlns="http://www.w3.org/2000/svg">
  <path d="M15 30c8.284 0 15-6.716 15-15 0-8.284-6.716-15-15-15C6.716 0 0 6.716 0 15c0 8.284 6.716 15 15 15zm0-2c7.18 0 13-5.82 13-13S22.18 2 15 2 2 7.82 2 15s5.82 13 13 13zm-1.5-11.5v2c0 .826.672 1.5 1.5 1.5.834 0 1.5-.672 1.5-1.5v-.689A6 6 0 1 0 9 12a1.5 1.5 0 0 0 3 0 3 3 0 1 1 3 3c-.834 0-1.5.672-1.5 1.5zM15 24a1.5 1.5 0 1 0 0-3 1.5 1.5 0 0 0 0 3z" fill="#050505" fill-rule="evenodd"/>
</svg>
