<?xml version="1.0" encoding="UTF-8" standalone="no"?>
<svg width="30" height="30" viewBox="0 0 30 30" xmlns="http://www.w3.org/2000/svg">
  <path d="M27.347 15.95A8 8 0 1 0 15 6.124 8 8 0 1 0 2.653 15.95C7.099 20.397 13.56 26.611 13.56 26.611c.795.767 2.083.77 2.88 0 0 0 6.46-6.214 10.907-10.66zM13.652 7.981A6.002 6.002 0 0 0 2 10c0 1.531.574 2.928 1.518 3.989L14.205 24.85a.992.992 0 0 0 1.406-.002L26 14.5a6.08 6.08 0 0 0 2-4.5 6 6 0 0 0-11.671-1.964S16 9 15 9s-1.29-.854-1.348-1.019z" fill="#050505" fill-rule="evenodd"/>
</svg>
