<?xml version="1.0" encoding="UTF-8" standalone="no"?>
<svg width="30px" height="30px" viewBox="0 0 30 30" version="1.1" xmlns="http://www.w3.org/2000/svg" xmlns:xlink="http://www.w3.org/1999/xlink" xmlns:sketch="http://www.bohemiancoding.com/sketch/ns">
    <!-- Generator: Sketch 3.4.2 (15855) - http://www.bohemiancoding.com/sketch -->
    <title>love</title>
    <desc>Created with Sketch.</desc>
    <defs></defs>
    <g id="Icons" stroke="none" stroke-width="1" fill="none" fill-rule="evenodd" sketch:type="MSPage">
        <g id="love" sketch:type="MSArtboardGroup" fill="#050505">
            <path d="M27.3473634,15.9503638 C28.9758825,14.4859154 30,12.3625554 30,10 C30,5.581722 26.418278,2 22,2 C20.4939866,2 19.0851689,2.41614382 17.8822633,3.13971484 C16.6793578,3.86328585 15.6823645,4.89428406 15,6.12399283 C13.6352711,3.66457529 11.0120267,2 8,2 C3.581722,2 0,5.581722 0,10 C0,12.3625554 1.02411754,14.4859154 2.65263664,15.9503638 C7.09915127,20.3968784 15,28 15,28 C15,28 22.9008487,20.3968784 27.3473634,15.9503638 Z M13.6518254,7.98096786 C12.8228029,5.66053016 10.6053203,4 8,4 C4.6862915,4 2,6.6862915 2,10 C2,11.5311824 2.57355939,12.9284028 3.51755112,13.9885342 L14.8994949,25.5563492 L26,14.4999998 C27.2203527,13.3883032 28,11.7851998 28,10 C28,6.6862915 25.3137085,4 22,4 C19.3740278,4 17.1420662,5.68695999 16.3287223,8.0362729 C16.3287223,8.0362729 16,9 15,9 C14,9 13.7108791,8.14625967 13.6518254,7.98096786 Z" id="Rectangle-114" sketch:type="MSShapeGroup"></path>
        </g>
    </g>
</svg>