<?xml version="1.0" encoding="UTF-8" standalone="no"?>
<svg width="30px" height="30px" viewBox="0 0 30 30" version="1.1" xmlns="http://www.w3.org/2000/svg" xmlns:xlink="http://www.w3.org/1999/xlink" xmlns:sketch="http://www.bohemiancoding.com/sketch/ns">
    <!-- Generator: Sketch 3.4.2 (15855) - http://www.bohemiancoding.com/sketch -->
    <title>person</title>
    <desc>Created with Sketch.</desc>
    <defs></defs>
    <g id="Icons" stroke="none" stroke-width="1" fill="none" fill-rule="evenodd" sketch:type="MSPage">
        <g id="person" sketch:type="MSArtboardGroup" fill="#050505">
            <path d="M3.00508508,30 L1,30 C1.51458609,22.1819682 8.01895275,16 15.9671954,16 C23.9154381,16 30.4198048,22.1819682 30.9343909,30 L28.9293058,30 C28.4186809,23.2875523 22.8104252,18 15.9671954,18 C9.12396569,18 3.51570995,23.2875523 3.00508508,30 L3.00508508,30 Z M15.9671954,16 C20.3854734,16 23.9671954,12.418278 23.9671954,8 C23.9671954,3.581722 20.3854734,0 15.9671954,0 C11.5489174,0 7.96719545,3.581722 7.96719545,8 C7.96719545,12.418278 11.5489174,16 15.9671954,16 Z M15.9671954,14 C19.2809039,14 21.9671954,11.3137085 21.9671954,8 C21.9671954,4.6862915 19.2809039,2 15.9671954,2 C12.6534869,2 9.96719545,4.6862915 9.96719545,8 C9.96719545,11.3137085 12.6534869,14 15.9671954,14 L15.9671954,14 Z" id="Oval-40" sketch:type="MSShapeGroup"></path>
        </g>
    </g>
</svg>