<svg width="30" height="30" viewBox="0 0 30 30" xmlns="http://www.w3.org/2000/svg"><path d="M2.038 14c-.025.33-.038.664-.038 1 0 7.18 5.82 13 13 13s13-5.82 13-13c0-.847-.081-1.675-.236-2.476A15.06 15.06 0 0 1 24 13c-5.107 0-9.619-2.553-12.328-6.452C10.55 10.825 6.663 13.983 2.038 14zM15 30c8.284 0 15-6.716 15-15 0-8.284-6.716-15-15-15C6.716 0 0 6.716 0 15c0 8.284 6.716 15 15 15zM9.5 18a1.5 1.5 0 1 0 0-3 1.5 1.5 0 0 0 0 3zm11 0a1.5 1.5 0 1 0 0-3 1.5 1.5 0 0 0 0 3z" fill="#050505" fill-rule="evenodd"/></svg>