<?xml version="1.0" encoding="UTF-8" standalone="no"?>
<svg width="30px" height="30px" viewBox="0 0 30 30" version="1.1" xmlns="http://www.w3.org/2000/svg" xmlns:xlink="http://www.w3.org/1999/xlink" xmlns:sketch="http://www.bohemiancoding.com/sketch/ns">
    <!-- Generator: Sketch 3.4.2 (15855) - http://www.bohemiancoding.com/sketch -->
    <title>person</title>
    <desc>Created with Sketch.</desc>
    <defs></defs>
    <g id="Icons" stroke="none" stroke-width="1" fill="none" fill-rule="evenodd" sketch:type="MSPage">
        <g id="person" sketch:type="MSArtboardGroup" fill="#050505">
            <path d="M2.00508508,30 L0,30 C0.514586085,22.1819682 7.01895275,16 14.9671954,16 C22.9154381,16 29.4198048,22.1819682 29.9343909,30 L27.9293058,30 C27.4186809,23.2875523 21.8104252,18 14.9671954,18 C8.12396569,18 2.51570995,23.2875523 2.00508508,30 L2.00508508,30 Z M14.9671954,16 C19.3854734,16 22.9671954,12.418278 22.9671954,8 C22.9671954,3.581722 19.3854734,0 14.9671954,0 C10.5489174,0 6.96719545,3.581722 6.96719545,8 C6.96719545,12.418278 10.5489174,16 14.9671954,16 Z M14.9671954,14 C18.2809039,14 20.9671954,11.3137085 20.9671954,8 C20.9671954,4.6862915 18.2809039,2 14.9671954,2 C11.6534869,2 8.96719545,4.6862915 8.96719545,8 C8.96719545,11.3137085 11.6534869,14 14.9671954,14 L14.9671954,14 Z" id="Oval-40" sketch:type="MSShapeGroup"></path>
        </g>
    </g>
</svg>