<svg width="30" height="30" viewBox="0 0 30 30" xmlns="http://www.w3.org/2000/svg"><path d="M9 6H4c-2.213 0-4 1.79-4 4v12a4 4 0 0 0 4 4h22c2.213 0 4-1.79 4-4V10a4 4 0 0 0-4-4h-5c0-.556-.449-1-1.002-1h-9.996C9.456 5 9 5.448 9 6zm10 2v-.495A.495.495 0 0 0 18.5 7h-7c-.27 0-.5.226-.5.505V8H3.003C2.451 8 2 8.448 2 9v1h26V9a1 1 0 0 0-1.003-1H19zm-4 15a6 6 0 1 0 0-12 6 6 0 0 0 0 12zm0-2a4 4 0 1 0 0-8 4 4 0 0 0 0 8zm0-1.5a2.5 2.5 0 0 1-2.5-2.5.5.5 0 1 1 1 0 1.5 1.5 0 0 0 1.5 1.5.5.5 0 1 1 0 1z" fill="#050505" fill-rule="evenodd"/></svg>