<?xml version="1.0" encoding="UTF-8" standalone="no"?>
<svg width="30" height="30" viewBox="0 0 30 30" xmlns="http://www.w3.org/2000/svg">
  <path d="M17.02 26.874a16.158 16.158 0 0 1-3.052.093A3.506 3.506 0 0 1 10.5 30 3.502 3.502 0 0 1 7 26.495v-1.718c-2.723-1.72-4.576-4.297-4.936-7.229L.8 16.6C.358 16.269 0 15.556 0 15c0-.552.395-.785.883-.526 0 0 .776.44 1.117.526.039.01.082.018.127.024C3.016 9.924 8.44 6 15 6c1.157 0 2.28.122 3.347.351.36-.382.868-.738.868-.738C19.65 5.275 20.451 5 20.991 5h3.011c1.104 0 1.475.734.864 1.658 0 0-.69.866-1.23 1.993 1.329.955 2.414 2.126 3.17 3.446A2.498 2.498 0 0 1 30 14.51l-.001 2.982a2.499 2.499 0 0 1-2.735 2.498c-.687 1.575-1.825 2.977-3.289 4.106.016.135.024.272.024.41v1.99A3.505 3.505 0 0 1 20.5 30a3.501 3.501 0 0 1-3.48-3.126zM15.868 5.022a4 4 0 1 0-7.186 1.213C10.58 5.445 12.727 5 15 5c.292 0 .581.007.868.022zM19.5 16a1.5 1.5 0 1 0 0-3 1.5 1.5 0 0 0 0 3z" fill="#050505" fill-rule="evenodd"/>
</svg>
