<svg width="30" height="30" viewBox="0 0 30 30" xmlns="http://www.w3.org/2000/svg"><path d="M19.003 8.58C17.763 8.206 16.413 8 15 8 8.925 8 4 11.806 4 16.5c0 2.984 1.99 5.609 5 7.125v2.873a1.5 1.5 0 1 0 3 0V24.68c.954.208 1.96.32 3 .32 1.411 0 2.76-.205 4-.58v2.078a1.5 1.5 0 1 0 3 0v-3.44c1.97-1.258 3.363-3.034 3.83-5.058h1.16c.567 0 1.01-.452 1.01-1.01v-1.98c0-.567-.452-1.01-1.01-1.01h-1.473c-.733-1.842-2.254-3.418-4.259-4.491.39-1.104 1.087-1.742 1.087-1.742.36-.443.208-.767-.344-.767h-1.002c-.556 0-1.255.36-1.57.803 0 0-.35.382-.426.777zM10.73 5.545c-.71.186-1.393.417-2.048.69a4 4 0 1 1 7.186-1.213 17.297 17.297 0 0 0-2.165.027 2 2 0 1 0-2.974.496zM15 27c-.347 0-.691-.011-1.032-.033A3.506 3.506 0 0 1 10.5 30 3.502 3.502 0 0 1 7 26.495v-1.718c-2.723-1.72-4.576-4.297-4.936-7.229L.8 16.6C.358 16.269 0 15.556 0 15c0-.552.395-.785.883-.526 0 0 .776.44 1.117.526.039.01.082.018.127.024C3.016 9.924 8.44 6 15 6c1.157 0 2.28.122 3.347.351.36-.382.868-.738.868-.738C19.65 5.275 20.451 5 20.991 5h3.011c1.104 0 1.475.734.864 1.658 0 0-.69.866-1.23 1.993 1.329.955 2.414 2.126 3.17 3.446A2.498 2.498 0 0 1 30 14.51l-.001 2.982a2.499 2.499 0 0 1-2.735 2.498c-.687 1.575-1.825 2.977-3.289 4.106.016.135.024.272.024.41v1.99A3.505 3.505 0 0 1 20.5 30a3.501 3.501 0 0 1-3.48-3.126c-.658.083-1.333.126-2.02.126zm4.5-11a1.5 1.5 0 1 0 0-3 1.5 1.5 0 0 0 0 3z" fill="#050505" fill-rule="evenodd"/></svg>