<?xml version="1.0" encoding="UTF-8" standalone="no"?>
<svg width="30" height="30" viewBox="0 0 30 30" xmlns="http://www.w3.org/2000/svg">
  <path d="M15 30c8.284 0 15-6.716 15-15 0-8.284-6.716-15-15-15C6.716 0 0 6.716 0 15c0 8.284 6.716 15 15 15zm0-2c7.18 0 13-5.82 13-13S22.18 2 15 2 2 7.82 2 15s5.82 13 13 13zm-4-10a4.002 4.002 0 0 0 3 3.874V23a1 1 0 0 0 2 0v-1.126A4.002 4.002 0 0 0 15 14a2 2 0 1 1 2-2 1 1 0 0 0 2 0 4.002 4.002 0 0 0-3-3.874V7a1 1 0 0 0-2 0v1.126A4.002 4.002 0 0 0 15 16a2 2 0 1 1-2 2 1 1 0 0 0-2 0z" fill="#050505" fill-rule="evenodd"/>
</svg>
