<?xml version="1.0" encoding="UTF-8" standalone="no"?>
<svg width="30" height="30" viewBox="0 0 30 30" xmlns="http://www.w3.org/2000/svg">
  <path d="M2.038 14c-.025.33-.038.664-.038 1 0 7.18 5.82 13 13 13s13-5.82 13-13c0-.847-.081-1.675-.236-2.476C26.562 12.834 25.3 13 24 13c-5.107 0-9.619-2.553-12.328-6.452C10.55 10.825 6.663 13.983 2.038 14zM15 30c8.284 0 15-6.716 15-15 0-8.284-6.716-15-15-15C6.716 0 0 6.716 0 15c0 8.284 6.716 15 15 15zM9.5 18a1.5 1.5 0 1 0 0-3 1.5 1.5 0 0 0 0 3zm11 0a1.5 1.5 0 1 0 0-3 1.5 1.5 0 0 0 0 3zm-.29 5.952c.422-.29.565-.998 0-1.626A6.982 6.982 0 0 0 15 20a6.982 6.982 0 0 0-5.207 2.321c-.528.588-.38 1.343 0 1.63.423.32 1.13.122 1.413-.207A4.989 4.989 0 0 1 15 22c1.486 0 2.82.648 3.736 1.677.388.436 1.065.557 1.475.275z" fill="#050505" fill-rule="evenodd"/>
</svg>
