<?xml version="1.0" encoding="UTF-8" standalone="no"?>
<svg width="30px" height="30px" viewBox="0 0 30 30" version="1.1" xmlns="http://www.w3.org/2000/svg" xmlns:xlink="http://www.w3.org/1999/xlink">
    <!-- Generator: Sketch 3.7.2 (28276) - http://www.bohemiancoding.com/sketch -->
    <title>safe-zone-solid</title>
    <desc>Created with Sketch.</desc>
    <defs></defs>
    <g id="Icons" stroke="none" stroke-width="1" fill="none" fill-rule="evenodd">
        <g id="safe-zone-solid" fill="#050505">
            <path d="M15,30 C23.2842712,30 30,23.2842712 30,15 C30,6.71572875 23.2842712,0 15,0 C6.71572875,0 0,6.71572875 0,15 C0,23.2842712 6.71572875,30 15,30 L15,30 Z M4.5306689,10.7045734 C3.96144618,9.76316351 4.40162726,9 5.50086422,9 L24.4991358,9 C25.6041826,9 26.0349432,9.769135 25.4693311,10.7045734 L16.0306689,26.3147201 C15.4614462,27.25613 14.5349432,27.2501585 13.9693311,26.3147201 L4.5306689,10.7045734 L4.5306689,10.7045734 Z M7.51260579,11.8670518 C7.22950143,11.3881923 7.44463086,11 8.00087166,11 L21.9991283,11 C22.5518945,11 22.7692032,11.3903834 22.4873942,11.8670518 L15.5126058,23.6646216 C15.2295014,24.1434811 14.7692032,24.14129 14.4873942,23.6646216 L7.51260579,11.8670518 L7.51260579,11.8670518 Z" id="Combined-Shape"></path>
        </g>
    </g>
</svg>