<svg width="30" height="30" viewBox="0 0 30 30" xmlns="http://www.w3.org/2000/svg"><path d="M15 30c8.284 0 15-6.716 15-15 0-8.284-6.716-15-15-15C6.716 0 0 6.716 0 15c0 8.284 6.716 15 15 15zm0-2c7.18 0 13-5.82 13-13S22.18 2 15 2 2 7.82 2 15s5.82 13 13 13zM5.57 12.422C4.425 10.532 5.285 9 7.505 9h14.988c2.212 0 3.084 1.524 1.937 3.422l-7.362 12.175c-1.143 1.89-2.99 1.898-4.138 0L5.569 12.422zm1.943-.555C7.23 11.388 7.445 11 8 11h13.998c.553 0 .77.39.488.867l-6.974 11.798c-.283.478-.744.476-1.026 0L7.513 11.867z" fill="#050505" fill-rule="evenodd"/></svg>