<?xml version="1.0" encoding="UTF-8" standalone="no"?>
<svg width="30" height="30" viewBox="0 0 30 30" xmlns="http://www.w3.org/2000/svg">
  <path d="M15 30c8.284 0 15-6.716 15-15 0-8.284-6.716-15-15-15C6.716 0 0 6.716 0 15c0 8.284 6.716 15 15 15zm0-2c7.18 0 13-5.82 13-13S22.18 2 15 2 2 7.82 2 15s5.82 13 13 13zM4.53 10.705C3.962 9.763 4.403 9 5.5 9h19c1.104 0 1.535.77.97 1.705l-9.44 15.61c-.569.941-1.495.935-2.06 0l-9.44-15.61zm2.983 1.162C7.23 11.388 7.445 11 8 11h13.998c.553 0 .77.39.488.867l-6.974 11.798c-.283.478-.744.476-1.026 0L7.513 11.867z" fill="#050505" fill-rule="evenodd"/>
</svg>
