<svg width="30" height="30" viewBox="0 0 30 30" xmlns="http://www.w3.org/2000/svg"><path d="M9.17 24a3.001 3.001 0 0 0 5.66-2h12.175c.55 0 .995.444.995 1 0 .552-.455 1-.995 1H14.829a2.995 2.995 0 0 0 .127-1.514A3 3 0 0 0 9.171 22H3.995c-.54 0-.995.448-.995 1 0 .556.446 1 .995 1h5.176zm10-8a3.001 3.001 0 0 0 5.66-2h2.175c.55 0 .995.444.995 1 0 .552-.455 1-.995 1h-2.176a2.995 2.995 0 0 0 .127-1.514A3 3 0 0 0 19.171 14H3.995c-.54 0-.995.448-.995 1 0 .556.446 1 .995 1h15.176zm-13-8a3.001 3.001 0 0 0 5.66-2h15.175c.55 0 .995.444.995 1 0 .552-.455 1-.995 1H11.829a2.995 2.995 0 0 0 .127-1.514A3 3 0 0 0 6.171 6H3.995C3.455 6 3 6.448 3 7c0 .556.446 1 .995 1h2.176zM9 8a1 1 0 1 0 0-2 1 1 0 0 0 0 2zm13 8a1 1 0 1 0 0-2 1 1 0 0 0 0 2zm-10 8a1 1 0 1 0 0-2 1 1 0 0 0 0 2z" fill="#010101" fill-rule="evenodd"/></svg>