<?xml version="1.0" encoding="UTF-8" standalone="no"?>
<svg width="30" height="30" viewBox="0 0 30 30" xmlns="http://www.w3.org/2000/svg">
  <path d="M15 24a9 9 0 1 0 0-18 9 9 0 0 0 0 18zm0-2a7 7 0 1 0 0-14 7 7 0 0 0 0 14zm-.61-20.518A.655.655 0 0 1 14.997 1c.276 0 .548.217.607.482l.676 3.042c.12.539-.226.976-.782.976h-1.002c-.552 0-.903-.431-.782-.976l.676-3.042zm0 27.036c.059.266.339.482.607.482a.649.649 0 0 0 .607-.482l.676-3.042c.12-.539-.226-.976-.782-.976h-1.002c-.552 0-.903.431-.782.976l.676 3.042zm6.84-25.53a.655.655 0 0 1 .767-.114c.24.138.367.462.285.72l-.935 2.973c-.166.527-.684.733-1.166.455l-.868-.501c-.477-.276-.566-.826-.189-1.237l2.107-2.296zM7.713 26.402a.655.655 0 0 0 .285.72c.24.139.584.087.767-.113l2.106-2.296c.374-.407.293-.959-.189-1.237l-.868-.5c-.477-.277-.997-.079-1.165.454l-.936 2.972zm18.69-18.69a.655.655 0 0 1 .72.285.649.649 0 0 1-.113.767l-2.296 2.106c-.407.374-.959.293-1.237-.189l-.5-.868c-.277-.477-.079-.997.454-1.165l2.972-.936zM2.988 21.231a.655.655 0 0 0-.114.766c.138.24.462.367.72.285l2.973-.935c.527-.166.733-.684.455-1.166l-.501-.868c-.276-.477-.826-.566-1.237-.189l-2.296 2.107zm25.53-6.841c.266.059.482.339.482.607a.649.649 0 0 1-.482.607l-3.042.676c-.539.12-.976-.226-.976-.782v-1.002c0-.552.431-.903.976-.782l3.042.676zm-27.036 0a.655.655 0 0 0-.482.607c0 .276.217.548.482.607l3.042.676c.539.12.976-.226.976-.782v-1.002c0-.552-.431-.903-.976-.782l-3.042.676zm25.53 6.84c.201.185.248.535.114.767a.649.649 0 0 1-.72.285l-2.973-.935c-.527-.166-.733-.684-.455-1.166l.501-.868c.276-.477.826-.566 1.237-.189l2.296 2.107zM3.598 7.713a.655.655 0 0 0-.72.285.649.649 0 0 0 .113.767l2.296 2.106c.407.374.959.293 1.237-.189l.5-.868c.277-.477.079-.997-.454-1.165l-2.972-.936zm18.69 18.69a.655.655 0 0 1-.285.72.649.649 0 0 1-.767-.113l-2.106-2.296c-.374-.407-.293-.959.189-1.237l.868-.5c.477-.277.997-.079 1.165.454l.936 2.972zM8.769 2.988a.655.655 0 0 0-.766-.114.649.649 0 0 0-.285.72l.935 2.973c.166.527.684.733 1.166.455l.868-.501c.477-.276.566-.826.189-1.237L8.769 2.988z" fill="#050505" fill-rule="evenodd"/>
</svg>
