<svg width="30" height="30" viewBox="0 0 30 30" xmlns="http://www.w3.org/2000/svg"><path d="M23.763 22.329l.622.622 5.02-5.02a2.029 2.029 0 0 0 0-2.87L14.346 0a4.057 4.057 0 0 1-5.738 0L0 8.607a4.057 4.057 0 0 1 0 5.737l15.062 15.062a2.029 2.029 0 0 0 2.868 0l6.455-6.455-.622-.622zM13.627 9.324a1.014 1.014 0 0 0-1.434-1.435l-.718.718a1.014 1.014 0 0 0 1.435 1.434l.717-.717zm-3.586 3.586a1.014 1.014 0 1 0-1.434-1.435l-.718.718a1.014 1.014 0 0 0 1.435 1.434l.717-.717zm-4.986 2.125l-.707.707 1.414 1.414.707-.707a1 1 0 0 0-1.414-1.414zM15.06 5.03l.708-.708 1.414 1.415-.707.707A1 1 0 0 1 15.06 5.03z" fill="#050505" fill-rule="evenodd"/></svg>