<svg width="30" height="30" viewBox="0 0 30 30" xmlns="http://www.w3.org/2000/svg"><path d="M21.213 22.627l1.414 1.415 6.364-6.364a2 2 0 0 0 0-2.829L14.142 0a4 4 0 0 1-5.657 0L0 8.485a4 4 0 0 1 0 5.657l14.85 14.85a2 2 0 0 0 2.828 0l4.95-4.95-1.415-1.415-4.242 4.243a1 1 0 0 1-1.415 0l-9.9-9.9.708-.707A1 1 0 0 0 4.95 14.85l-.707.707-1.768-1.767c.707-.708.707-4.243 0-4.95l6.364-6.364c.707.707 4.242.707 4.95 0l1.767 1.768-.707.707a1 1 0 1 0 1.414 1.414l.708-.707 9.9 9.9a1 1 0 0 1 0 1.414l-5.658 5.656zm-12.02-9.192a1 1 0 0 1-1.415-1.414l.707-.707A1 1 0 1 1 9.9 12.728l-.707.707zm3.535-3.536a1 1 0 0 1-1.414-1.414l.707-.707a1 1 0 1 1 1.414 1.414l-.707.707z" fill="#050505" fill-rule="evenodd"/></svg>