<svg width="30" height="30" viewBox="0 0 30 30" xmlns="http://www.w3.org/2000/svg"><path d="M29 7.501c-.957.425-1.985.711-3.064.84a5.35 5.35 0 0 0 2.346-2.951 10.678 10.678 0 0 1-3.388 1.294 5.334 5.334 0 0 0-9.09 4.865A15.144 15.144 0 0 1 4.81 5.977a5.309 5.309 0 0 0-.722 2.682c0 1.85.942 3.483 2.373 4.44a5.313 5.313 0 0 1-2.416-.667v.067a5.338 5.338 0 0 0 4.278 5.23 5.342 5.342 0 0 1-2.409.092 5.34 5.34 0 0 0 4.983 3.704 10.702 10.702 0 0 1-6.625 2.284c-.43 0-.855-.026-1.272-.075a15.099 15.099 0 0 0 8.177 2.397c9.811 0 15.177-8.128 15.177-15.177 0-.232-.005-.462-.016-.69A10.839 10.839 0 0 0 29 7.5" fill="#050505" fill-rule="evenodd"/></svg>