<?xml version="1.0" encoding="UTF-8" standalone="no"?>
<svg width="30" height="30" viewBox="0 0 30 30" xmlns="http://www.w3.org/2000/svg">
  <path d="M14 12.478l-3.178 3.178a.998.998 0 0 1-1.415 0 .998.998 0 0 1 0-1.414l5.657-5.656 5.656 5.656a.998.998 0 0 1 0 1.415.998.998 0 0 1-1.414 0L16 12.35v8.648a.999.999 0 1 1-2 0v-8.52zM15 30c8.284 0 15-6.716 15-15 0-8.284-6.716-15-15-15C6.716 0 0 6.716 0 15c0 8.284 6.716 15 15 15zm0-2c7.18 0 13-5.82 13-13S22.18 2 15 2 2 7.82 2 15s5.82 13 13 13z" fill="#050505" fill-rule="evenodd"/>
</svg>
