<?xml version="1.0" encoding="UTF-8" standalone="no"?>
<svg width="30" height="30" viewBox="0 0 30 30" xmlns="http://www.w3.org/2000/svg">
  <path d="M12.774 3.559c1.23-2.077 3.22-2.08 4.452 0L29.473 24.24c1.23 2.076.237 3.759-2.226 3.759H2.754C.294 28-.704 26.32.528 24.24L12.774 3.56zm1.676 1.51c.304-.514.794-.517 1.1 0L27.252 24.9c.304.514.062.932-.566.932H3.314c-.616 0-.872-.414-.566-.932L14.45 5.069zm-.95 6.428c0-.827.666-1.497 1.5-1.497a1.5 1.5 0 0 1 1.5 1.497v7.006C16.5 19.33 15.834 20 15 20a1.5 1.5 0 0 1-1.5-1.497v-7.006zM15 24a1.5 1.5 0 1 0 0-3 1.5 1.5 0 0 0 0 3z" fill="#050505" fill-rule="evenodd"/>
</svg>
